<?xml version="1.0" encoding="utf-8"?>
<svg width="512" height="512" viewBox="0 0 512 512" xmlns="http://www.w3.org/2000/svg"
     xmlns:xlink="http://www.w3.org/1999/xlink">
    <defs>
        <svg height="100%" width="100%" pointer-events="none" display="block" id="svg-1" version="1.1" xmlns="http://www.w3.org/2000/svg" xmlns:xlink="http://www.w3.org/1999/xlink"
     viewBox="0 0 128 128" enable-background="new 0 0 128 128" xml:space="preserve">
<path fill="#FFF99C" d="M85.715,26.547h-7.457c1.711-5.512,0.539-11.744-3.043-15.975c-3.587-4.236-9.158-6.766-14.896-6.766
    c-4.109,0-7.852,1.29-10.733,3.6c-3.045-4.6-9.469-7.03-15.613-7.03c-7.055,0-14.166,3.225-16.001,10.323
    c-1.147-0.196-2.492-0.347-3.91-0.347c-8.456,0-13.503,5.16-13.846,14.155c-0.185,4.844,1.047,8.677,3.662,11.394
    c1.359,1.413,3.049,2.442,4.988,3.094v48.546c0,6.663,5.421,12.083,12.083,12.083h43.364c6.662,0,12.084-5.42,12.084-12.083v-9.373
    c0,0,0,0.001,0.002,0.001c0.006,0,0.013-0.007,0.018-0.008l9.305,0.004c6.661,0,12.084-5.419,12.084-12.083V38.63
    C97.799,31.968,92.378,26.547,85.715,26.547z"/>
<path fill="none" d="M85.715,32.589H75.023v-0.178c-2.688,3-6.535,4.606-11.271,4.606c-4.216,0-8.304-1.251-10.778-2.189
    c-2.216,2.709-6.748,6.943-13.577,7.167c-0.236,0.008-0.467,0.012-0.696,0.012c-6.706,0-10.612-3.162-12.737-5.904
    c-2.943,2.091-7.034,3.49-11.06,3.669V87.54c0,3.321,2.719,6.041,6.042,6.041h43.366c3.322,0,6.041-2.72,6.041-6.041v-9.376
    c0-3.322,2.723-6.041,6.043-6.041h9.318c3.322,0,6.043-2.719,6.043-6.042v-27.45C91.758,35.307,89.037,32.589,85.715,32.589z"/>
<path fill="none" d="M75.042,32.605h10.69c1.653,0,3.156,0.674,4.25,1.759c-1.096-1.095-2.606-1.775-4.268-1.775H75.041
    L75.042,32.605L75.042,32.605z"/>
<path fill="none" d="M39.416,42.01c6.829-0.225,11.361-4.458,13.576-7.167c2.476,0.938,6.562,2.188,10.777,2.188
    c4.727,0,8.567-1.6,11.254-4.588v-0.032c-2.688,3-6.535,4.606-11.271,4.606c-4.216,0-8.303-1.251-10.778-2.189
    c-2.216,2.709-6.748,6.943-13.577,7.167c-0.236,0.008-0.467,0.012-0.696,0.012c-4.608,0-7.895-1.493-10.189-3.317
    c2.295,1.831,5.586,3.332,10.207,3.332C38.949,42.022,39.18,42.018,39.416,42.01z"/>
<path fill="none" d="M14.923,87.557V39.788c4.025-0.18,8.114-1.577,11.056-3.667c-0.004-0.006-0.01-0.012-0.014-0.018
    c-2.943,2.091-7.034,3.49-11.06,3.669V87.54c0,1.669,0.688,3.186,1.792,4.281C15.603,90.727,14.923,89.217,14.923,87.557z"/>
<polygon fill="#FF9C08" points="80.162,59.326 80.162,45.717 75.939,45.717 75.939,59.33 80.162,59.33 "/>
<polygon fill="none" points="75.939,59.33 80.162,59.33 80.162,59.326 80.162,45.717 75.939,45.717 "/>
<g>
    <polygon fill="#FF9C08" points="75.939,59.33 80.162,59.33 80.162,59.326 80.162,45.717 75.939,45.717     "/>
    <path fill="#FF9C08" d="M89.982,34.364c-1.094-1.085-2.597-1.759-4.25-1.759h-10.69h-0.001v-0.016h-0.018v-0.146
        c-2.687,2.988-6.527,4.588-11.254,4.588c-4.215,0-8.302-1.25-10.777-2.188c-2.215,2.709-6.747,6.942-13.576,7.167
        c-0.236,0.008-0.467,0.012-0.696,0.012c-4.621,0-7.912-1.501-10.207-3.332c-1.038-0.825-1.872-1.717-2.534-2.569
        c-2.942,2.09-7.031,3.487-11.056,3.667v47.769c0,1.66,0.68,3.17,1.774,4.265c1.094,1.086,2.597,1.76,4.25,1.76h43.366
        c3.322,0,6.041-2.72,6.041-6.041v-9.376c0-3.322,2.723-6.041,6.043-6.041h9.318c3.322,0,6.043-2.719,6.043-6.042v-27.45
        C91.758,36.97,91.078,35.459,89.982,34.364z M85.6,59.297c0.01,0.526-0.062,2.496-1.494,3.98c-0.656,0.681-1.832,1.492-3.692,1.492
        h-7.19c-1.502,0-2.721-1.219-2.721-2.72V42.999c0-1.502,1.219-2.719,2.721-2.719h7.03c1.979,0,3.205,0.814,3.884,1.498
        c1.405,1.417,1.467,3.22,1.463,3.567V59.297z"/>
</g>

<path opacity="0.3" fill="#FFFFFF" enable-background="new" d="M28.018,81.221c0,1.975-1.6,3.573-3.574,3.573l0,0
    c-1.974,0-3.574-1.601-3.574-3.573l0,0c0-1.975,1.601-3.574,3.574-3.574l0,0C26.418,77.646,28.018,79.246,28.018,81.221
    L28.018,81.221z">

    <animateTransform attributeName="transform"
                      attributeType="XML"
                      type="translate"
                      values="0 50;0 -50;"
                      dur="2.8s"
                      repeatCount="indefinite"/>

</path>
<path opacity="0.3" fill="#FFFFFF" enable-background="new    " d="M39.018,51.221c0,1.975-1.6,3.573-3.574,3.573l0,0
    c-1.974,0-3.574-1.601-3.574-3.573l0,0c0-1.975,1.601-3.575,3.574-3.575l0,0C37.418,47.646,39.018,49.246,39.018,51.221
    L39.018,51.221z">

<animateTransform attributeName="transform"
                      attributeType="XML"
                      type="translate"
                      values="0 50;0 -50;"
                      dur="4s"
                      repeatCount="indefinite"/>

</path>

<path opacity="0.3" fill="#FFFFFF" enable-background="new    " d="M65.018,81.221c0,1.975-1.6,3.573-3.574,3.573l0,0
    c-1.973,0-3.573-1.601-3.573-3.573l0,0c0-1.975,1.601-3.574,3.573-3.574l0,0C63.418,77.646,65.018,79.246,65.018,81.221
    L65.018,81.221z">

<animateTransform attributeName="transform"
                      attributeType="XML"
                      type="translate"
                      values="2 50;2 -50;"
                      dur="2.2s"
                      repeatCount="indefinite"/>

</path>

<path opacity="0.3" fill="#FFFFFF" enable-background="new    " d="M58.018,59.221c0,1.975-1.6,3.573-3.574,3.573l0,0
    c-1.973,0-3.573-1.601-3.573-3.573l0,0c0-1.975,1.601-3.574,3.573-3.574l0,0C56.418,55.646,58.018,57.246,58.018,59.221
    L58.018,59.221z">

<animateTransform attributeName="transform"
                      attributeType="XML"
                      type="translate"
                      values="0 50;0 -50;"
                      dur="2.5s"
                      repeatCount="indefinite"/>

</path>
<path opacity="0.3" fill="#FFFFFF" enable-background="new    " d="M23.165,61.221c0,0.949-0.771,1.719-1.721,1.719l0,0
    c-0.949,0-1.72-0.77-1.72-1.719l0,0c0-0.951,0.771-1.721,1.72-1.721l0,0C22.394,59.5,23.165,60.27,23.165,61.221L23.165,61.221z">
    <animateTransform attributeName="transform"
                      attributeType="XML"
                      type="translate"
                      values="0 50;0 -50;"
                      dur="3s"
                      repeatCount="indefinite"/>

</path>
<path opacity="0.3" fill="#FFFFFF" enable-background="new    " d="M45.165,71.221c0,2.055-1.667,3.719-3.721,3.719l0,0
    c-2.053,0-3.719-1.664-3.719-3.719l0,0c0-2.056,1.667-3.72,3.719-3.72l0,0C43.498,67.501,45.165,69.165,45.165,71.221L45.165,71.221
    z">
    <animateTransform attributeName="transform"
                      attributeType="XML"
                      type="translate"
                      values="0 50;0 -50;"
                      dur="4s"
                      repeatCount="indefinite"/>

</path>
<path opacity="0.3" fill="#FFFFFF" enable-background="new    " d="M43.877,86.221c0,1.344-1.09,2.432-2.434,2.432l0,0
    c-1.343,0-2.433-1.088-2.433-2.432l0,0c0-1.345,1.09-2.434,2.433-2.434l0,0C42.788,83.787,43.877,84.876,43.877,86.221
    L43.877,86.221z">
    <animateTransform attributeName="transform"
                      attributeType="XML"
                      type="translate"
                      values="0 50;0 -50;"
                      dur="3s"
                      repeatCount="indefinite"/>

</path>
<path opacity="0.3" fill="#FFFFFF" enable-background="new    " d="M63.999,42.22c0,1.411-1.146,2.554-2.556,2.554l0,0
    c-1.408,0-2.553-1.143-2.553-2.554l0,0c0-1.411,1.145-2.554,2.553-2.554l0,0C62.854,39.666,63.999,40.809,63.999,42.22L63.999,42.22
    z">
    <animateTransform attributeName="transform"
                      attributeType="XML"
                      type="translate"
                      values="0 50;0 -50;"
                      dur="3s"
                      repeatCount="indefinite"/>

</path>
<path opacity="0.3" fill="#FFFFFF" enable-background="new    " d="M23.109,46.601c0,0.709-0.575,1.283-1.285,1.283l0,0
    c-0.708,0-1.283-0.573-1.283-1.283l0,0c0-0.709,0.575-1.284,1.283-1.284l0,0C22.534,45.317,23.109,45.891,23.109,46.601
    L23.109,46.601z">
    <animateTransform attributeName="transform"
                      attributeType="XML"
                      type="translate"
                      values="0 50;0 -50;"
                      dur="2s"
                      repeatCount="indefinite"/>

</path>
<path opacity="0.3" fill="#FFFFFF" enable-background="new    " d="M53.075,49.444c0,0.709-0.574,1.283-1.284,1.283l0,0
    c-0.708,0-1.283-0.573-1.283-1.283l0,0c0-0.709,0.575-1.283,1.283-1.283l0,0C52.5,48.161,53.075,48.734,53.075,49.444L53.075,49.444
    z">
    <animateTransform attributeName="transform"
                      attributeType="XML"
                      type="translate"
                      values="0 50;0 -50;"
                      dur="2.5s"
                      repeatCount="indefinite"/>

</path>
<path opacity="0.3" fill="#FFFFFF" enable-background="new    " d="M53.497,74.723c0,0.711-0.575,1.283-1.284,1.283l0,0
    c-0.708,0-1.283-0.572-1.283-1.283l0,0c0-0.709,0.575-1.281,1.283-1.281l0,0C52.921,73.439,53.497,74.014,53.497,74.723
    L53.497,74.723z">
    <animateTransform attributeName="transform"
                      attributeType="XML"
                      type="translate"
                      values="0 50;0 -50;"
                      dur="2.2s"
                      repeatCount="indefinite"/>

</path>
<path opacity="0.3" fill="#FFFFFF" enable-background="new    " d="M26.061,70.771c0,0.709-0.575,1.283-1.284,1.283l0,0
    c-0.708,0-1.283-0.574-1.283-1.283l0,0c0-0.709,0.575-1.283,1.283-1.283l0,0C25.486,69.486,26.061,70.062,26.061,70.771
    L26.061,70.771z">
    <animateTransform attributeName="transform"
                      attributeType="XML"
                      type="translate"
                      values="0 50;0 -50;"
                      dur="2s"
                      repeatCount="indefinite"/>

</path>
<path opacity="0.3" fill="#FFFFFF" enable-background="new    " d="M65.877,68.221c0,1.344-1.09,2.432-2.434,2.432l0,0
    c-1.344,0-2.434-1.088-2.434-2.432l0,0c0-1.345,1.09-2.434,2.434-2.434l0,0C64.788,65.787,65.877,66.876,65.877,68.221
    L65.877,68.221z">
    <animateTransform attributeName="transform"
                      attributeType="XML"
                      type="translate"
                      values="-10 50;-10 -50;"
                      dur="5s"
                      repeatCount="indefinite"/>

</path>
</svg>
        <svg viewBox="0 0 128 128" height="100%" width="100%" pointer-events="none" display="block" id="svg-10">
            <path fill="#FFCC80" d="M41.6 123.8s0 .1-.1.1l.3-.4c-.1.2-.1.2-.2.3z"/>
            <path fill="#8C9EFF" d="M0 0h128v128H0z"/>
            <path fill="#C2C2C2"
                  d="M34.8 79.5c-2.5-3.4-5.9-6.4-6.9-10.3v-.1l-.6-.5c-.3-1.2.6-2 .5-3l-2.4-1h-6.9s0 17 17.4 17.3c-.9-.9-.7-1.8-1.1-2.4z"/>
            <path fill="#CFD8DC"
                  d="M21.9 64.2l-.1-.3c0-.1 0-.2-.1-.4v-1l.1-.3c.1-.1.1-.2.1-.3.1-.1.1-.2.1-.2.2-.4.1-.8-.2-1.1-.4-.4-1-.4-1.3 0l-.2.2-.2.2c-.1.1-.2.2-.3.4l-.3.6-.3.6c-.1.2-.2.4-.2.7 0 .2-.1.5-.1.8v.5h3c.2-.2.1-.3 0-.4z"/>
            <path fill="#eee"
                  d="M116.5 65.2c.1.1.2.1.2.2 0-.1-.1-.2-.2-.2zm8.2 6.1l.6.3c-.3-.1-.4-.2-.6-.3zm1.7 1l.6.3c-.2 0-.4-.1-.6-.3zm-3.4-2.1l.5.3c-.2 0-.4-.2-.5-.3zm-8-6.5zm-.1 64.1c-12-17.2-7.6-52-3.1-67.6v-.1c-3.5-4.2-7.8-11.7-10.2-18.7-1.7-5-4-8.8-6.4-11.8l-1.6-2-10.7 11.8c-1.5 2.1-3.3 1.8-4.1-.6l-7.1-17.3c-.3-.9-.3-1.9 0-2.7.3-1.1-.1-2.1.7-3l-2-.1c-1.3 0-2.5.1-3.7.3-1.7-.3-3.4-.5-5.1-.5-11.9 0-21.9 8.1-24.8 19.2-.5 1.8-.7 3.7-.8 5.6-1.2 3.6-4.2 7.7-11.5 8.4 1.3.4 2.2 1.9 2 3.6l-.5 2.8c-.3 2-1.2 2.4-2.2.9l1.6 8.6.2.9c.1 1.1.3 2.2.6 3.4 1 4 3.2 8.2 7.8 10.9.3.6 1 1.3 2 2.1 8.2 6.7 36 20.7 27.8 46.1h51.3c0-.1-.1-.1-.2-.2zM34.5 59.3c.5 0 1 .4 1 1 0 .5-.4 1-1 1-.5 0-1-.4-1-1s.4-1 1-1zm7.4 3.9c.5 0 1 .4 1 1 0 .5-.4 1-1 1-.5 0-1-.4-1-1 0-.5.5-1 1-1zm-1-8.5c-.5 0-1-.4-1-1 0-.5.4-1 1-1 .5 0 1 .4 1 1s-.5 1-1 1zm3.9-10.9c-.9 0-1.6-.7-1.6-1.6 0-.9.7-1.6 1.6-1.6.9 0 1.6.7 1.6 1.6 0 .9-.7 1.6-1.6 1.6zm73.3 22.7c.1.1.2.2.4.3-.2-.1-.3-.2-.4-.3zm3.2 2.6l.5.3-.5-.3zm-1.6-1.3l.4.3c-.1 0-.3-.1-.4-.3z"/>
            <path fill="#C2C2C2"
                  d="M114.9 127.8l.2.2H128V73.2l-1-.6-.6-.3-1.2-.7-.6-.3-1.2-.7-.5-.3-1.2-.8-.5-.3-1.2-.9-.4-.3-1.2-1c-.1-.1-.2-.2-.4-.3l-1.3-1.2c-.1-.1-.2-.1-.2-.2l-1.5-1.5c-1.5-1.6-3-3.3-4.4-5.1-4.6 15.4-13 52.7 4.3 69.1z"/>
            <path fill="#646464"
                  d="M26 55.1l.4-2.8c.2-1.8-.6-3.2-2-3.6-.3-.1-.7-.2-1.1-.1-2 .1-2.7 1.9-1.6 3.8l1.8 3.3c.1.2.2.3.3.4 1 1.3 1.9 1 2.2-1z"/>
            <circle fill="#444" cx="44.8" cy="42.2" r="2"/>
            <circle fill="#CFD8DC" cx="34.5" cy="60.3" r="1"/>
            <circle fill="#CFD8DC" cx="40.9" cy="53.7" r="1"/>
            <circle fill="#CFD8DC" cx="41.9" cy="64.2" r="1"/>
            <path fill="#646464"
                  d="M70.7 18.8c-.3.8-.3 1.8 0 2.7l8.1 19.3c.8 2.5 2.6 2.7 4.1.6l12.3-11.8 1.4-1.3c.3-.4.5-.9.6-1.3.4-1.2.3-2.4-.1-3.6-1.1-4.3-5.6-8.9-11.2-10.3-5.6-1.4-10.9-.2-13.6 2.7-.8.8-1.3 1.8-1.6 3z"/>
        </svg>
        <svg viewBox="0 0 128 128" height="100%" width="100%" pointer-events="none" display="block" id="svg-11">
            <path fill="#FFCC80" d="M41.6 123.8s0 .1-.1.1l.3-.4c-.1.2-.1.2-.2.3z"/>
            <path fill="#FFFF8D" d="M0 0h128v128H0z"/>
            <path fill="#F4B400"
                  d="M110.3 91.4l-.5-.5c.1.2.3.4.5.5zm-4.4-4.5l.4.5c-.1-.2-.3-.4-.4-.5zm9.8 9.5c.2.2.4.4.7.6-.3-.2-.5-.4-.7-.6zM104.3 85c.2.2.3.4.5.5-.2-.1-.4-.3-.5-.5zm3.7 4.1zm16.9 14l.9.6c-.3-.3-.6-.4-.9-.6zm-28.5-29l.1.2c-.1 0-.1-.1-.1-.2zm15.2 18.6c.2.2.4.4.7.6l-.7-.6zm10 8.2l.9.6-.9-.6zm-18.8-17.7l.4.5c-.1-.1-.3-.3-.4-.5zm-1.4-1.7c.1.1.1.2.2.2-.1 0-.1-.1-.2-.2zm12.2 13l.7.6c-.2-.1-.5-.4-.7-.6zm-15-16.8c.1.1.1.2.2.2l-.2-.2zm-1.2-1.8l.2.3c0-.1-.1-.2-.2-.3zm28.4 27.7l-.9-.6-2.4-1.5-.9-.6c-1-.7-2.1-1.4-3.1-2.2l-2.2-1.8c-.2-.2-.4-.4-.7-.6-.5-.4-1-.8-1.4-1.2l-.7-.6-1.3-1.2-.7-.6c-.5-.4-.9-.9-1.3-1.3l-.5-.5-1.8-1.8c-.6-.6-1.1-1.2-1.6-1.8l-.4-.5-1.2-1.3c-.2-.2-.3-.4-.5-.5l-1.1-1.3-.4-.5-1.2-1.5c-.1-.1-.1-.2-.2-.2-.9-1.2-1.8-2.4-2.6-3.6-.1-.1-.1-.2-.2-.2l-1-1.5-.2-.3c-.3-.5-.6-1-1-1.5l-.1-.2c-1.1-1.8-2-3.5-2.9-5.2-3.1-6-4.8-11.4-5.7-15.9-.2-.9-.3-1.7-.4-2.6L85 13l-8 10.2c-3.7-2.6-8.2-4.2-13.1-4.2s-9.4 1.5-13.1 4.1L42.7 13l-1.8 29-7.7 71.8h.2c-.1 1-.2 2-.2 3 0 4 .8 7.7 2.1 11.2H128v-23.1c-.7-.4-1.5-.8-2.2-1.3zM55 38.4c-.9 0-1.6-.7-1.6-1.6 0-.9.7-1.6 1.6-1.6.9 0 1.6.7 1.6 1.6 0 .8-.7 1.6-1.6 1.6zm17.9 0c-.9 0-1.6-.7-1.6-1.6 0-.9.7-1.6 1.6-1.6.9 0 1.6.7 1.6 1.6 0 .8-.7 1.6-1.6 1.6z"/>
            <circle fill="#444" cx="72.9" cy="36.7" r="2"/>
            <circle fill="#444" cx="55" cy="36.7" r="2"/>
            <path fill="#444" d="M61.6 39.5c-.5 1-.1 1.7 1 1.7h4.6c1.1 0 1.6-.8 1-1.7l-2.3-4c-.5-1-1.4-1-2 0l-2.3 4z"/>
            <path fill="#FF5722"
                  d="M92.5 102.7c8.3 11.3 23.6 14.4 35.5 7.8v-5.6l-2.2-1.3-.9-.6-2.4-1.5-.9-.6c-1-.7-2.1-1.4-3.1-2.2l-2.2-1.8c-.2-.2-.4-.4-.7-.6-.5-.4-1-.8-1.4-1.2l-.7-.6-1.3-1.2-.7-.6c-.5-.4-.9-.9-1.3-1.3l-.5-.5-1.8-1.8c-.6-.6-1.1-1.2-1.6-1.8l-.4-.5-1.2-1.3c-.2-.2-.3-.4-.5-.5l-1.1-1.3-.4-.5-1.2-1.5c-.1-.1-.1-.2-.2-.2-.9-1.2-1.8-2.4-2.6-3.6-.1-.1-.1-.2-.2-.2l-1-1.5-.2-.3c-.3-.5-.6-1-1-1.5l-.1-.2c-1.1-1.8-2-3.5-2.9-5.2-7.7 9.4-8.4 23.4-.8 33.7z"/>
        </svg>
        <svg viewBox="0 0 128 128" height="100%" width="100%" pointer-events="none" display="block" id="svg-12">
            <path fill="#B9F6CA" d="M0 0h128v128H0z"/>
            <path fill="#444"
                  d="M50.4 75.7c-1.6-1.6-3.2-2.9-4.7-4-.9-.6-1-1.7-1.7-2.2-1.8-1-3.2-5.9-5.3-3.4l-.5.8-.4-.9c-1.3-1.2-1-.4-1.3-2.3-.5-4.2 1.2-7.2 5.1-7.8 1-.1 2-.1 2.9.2 9.5-1.8 13.7-7.4 15.2-10 4 5.7 14.3 11.4 38.3 7.8 2.8-4.7 4.5-10.2 4.5-16C102.4 20.8 88.6 7 71.6 7c-6.7 0-12.8 2.1-17.9 5.7L27.9 31C16.3 36.6 8.3 48.5 8.3 62.2c0 19.1 15.5 34.6 34.6 34.6 4.6 0 9-.9 13-2.5.2-8.4-1.4-14.5-5.5-18.6zm-5.9-21.6z"/>
            <path fill="#8D6E63"
                  d="M73.7 122c6.1.5 13.4-.3 22-3.5-.1-.7-.3-1.4-.5-2.1-.3-1.3-3.8-21.4-4-28.1-.1-7.3.8-11.9 2-14.7h8.7l-2.5-10.1c-.2-2.4-.4-4.7-.7-6.6-.2-1.8-.3-2.3-.8-3.9-24 3.6-34.2-3.7-38.2-9.4-1.4 2.5-5.7 8.8-15.3 10.5-.9-.3-1.9-.3-2.9-.2-3.9.6-6.7 4.5-6.1 8.8.3 2 1.2 3.6 2.5 4.8.2.1 1.5.6 3.3 1.7.7.4 1.6.9 2.4 1.6 1.5 1.1 3.1 2.4 4.7 4 4 4.1 7.6 10.2 7.4 18.5-.1 4.9-1.6 10.6-5.1 17.2.1 0 7.3 10.2 23.1 11.5zM44.5 54.1z"/>
            <path fill="#FFCC80" d="M41.6 123.8s.1-.2.2-.3c-.1.2-.1.2-.2.3z"/>
            <circle fill="#444" cx="83.5" cy="63.1" r="2"/>
            <path fill="#0097A7"
                  d="M73.7 122c-15.9-1.3-23-11.5-23-11.5-2.1 4-5.1 8.4-8.9 13.1l-.3.4c-.5.6-1.1 1.3-1.7 2-.5.6-1 1.3-1.6 2.1h59.7c-.7-3.2-1.5-6.4-2.1-9.5-8.7 3.1-16 3.9-22.1 3.4z"/>
        </svg>
        <svg version="1.1" id="svg-18" onload="init(evt)" xmlns="http://www.w3.org/2000/svg" xmlns:xlink="http://www.w3.org/1999/xlink"
	 x="0px" y="0px" viewBox="0 0 286.3 286.3" enable-background="new 0 0 286.3 286.3" xml:space="preserve">
<linearGradient id="SVGID_1_" gradientUnits="userSpaceOnUse" x1="143.15" y1="285" x2="143.15" y2="0.9718">
	<stop  offset="0" style="stop-color:#BB6CA4"/>
	<stop  offset="0.3399" style="stop-color:#A36EA8"/>
	<stop  offset="1" style="stop-color:#5E6EAE"/>
</linearGradient>
<rect fill="url(#SVGID_1_)" width="286.3" height="286.3"/>
<g>
	<g>
		<g>
			<path fill="#FFFFFF" d="M125.7,185.3c0,0,8.6,6.5,17.4,6.5s17.4-6.5,17.4-6.5s6.5-3.8,6.5-11.1c0-17.2,14.2-24.3,14.2-43.3
				c0-17.8-13.8-36.4-38.1-36.4S105,113.1,105,130.9c0,19,14.2,26,14.2,43.3C119.2,181.5,125.7,185.3,125.7,185.3z"/>
			<g>
				<linearGradient id="SVGID_2_" gradientUnits="userSpaceOnUse" x1="141.8432" y1="188.8" x2="141.8432" y2="127.822">
					<stop  offset="0.1008" style="stop-color:#FFFFFF"/>
					<stop  offset="0.6303" style="stop-color:#211E22"/>
				</linearGradient>
				<path fill="url(#SVGID_2_)" d="M143.1,188.8c-2.7,0-6.4-1.5-8.7-8.7c-1.3-4-2-9.5-2-15.2c0-9-1.8-12.9-6.2-22.1l-0.3-0.6
					c-3.2-6.7-3-8.7-2.4-9.6c0.3-0.5,0.9-0.9,1.6-0.9c1.6,0,3.9,1.7,5.7,3.3c0.4-4.5,1.9-7,4.3-7.1l0,0c3,0,5.7,4.1,7.2,6.9
					c1.3-2.9,3.8-7.1,7.2-7.1c0.5,0,1.1,0.1,1.6,0.3c1.8,0.8,2.5,4.8,2.7,8.1c1.4-1.3,3.2-2.7,4.7-2.7c0.7,0,1.3,0.3,1.6,0.8
					c0.6,0.8,0.9,2.5-1.2,7.8c-0.5,1.1-0.9,2.2-1.3,3.2c-3.6,8.7-4.7,11.3-5.2,19.6C152.2,167.5,151.6,188.8,143.1,188.8
					L143.1,188.8L143.1,188.8z M125.1,133.8c-0.1,0.4-0.1,2,2.5,7.6l0.3,0.6c4.6,9.6,6.4,13.5,6.4,23c0,5.4,0.7,10.7,1.9,14.5
					c1.6,4.8,3.9,7.3,6.8,7.3l0,0l0,0c5.5,0,7-16.2,7.1-21.8c0.6-8.7,1.8-11.6,5.4-20.3c0.4-1,0.8-2,1.3-3.2c2-5,1.4-5.9,1.4-5.9
					c-0.7,0-2.5,1.2-4.6,3.5c0,2.1-0.1,8.5-1.9,10.4c-0.5,0.5-1,0.6-1.3,0.6h-0.2c-1.8-0.2-2.5-1.2-2.8-2c-1.2-3.1,2.9-8.1,4.2-9.7
					c-0.1-5.3-1-8-1.5-8.3c-0.3-0.1-0.5-0.2-0.8-0.2c-1.9,0-4.3,3-6,7.5c1.8,4.1,3.2,9.6,1.7,11.9c-0.5,0.7-1.2,1.1-2.1,1.1
					c-1,0-1.8-0.4-2.3-1.2c-1.6-2.3-0.9-7.5,0.6-11.7c-2-4.4-4.5-7.4-6.1-7.4c-1.4,0-2.3,2.8-2.4,6.8c0.8,0.8,1.4,1.5,1.9,2
					c2.2,2.7,4.6,7.7,3.4,10.3c-0.5,1-1.4,1.5-2.7,1.5c-0.5,0-1.1-0.1-1.7-0.8c-1.9-1.9-2.9-7.7-2.9-12.2
					C128.1,135.2,125.9,133.9,125.1,133.8z M132.8,139.9c0.3,5,1.7,8.8,2.5,8.9l0,0c0.7,0,0.8-0.3,0.9-0.4c0.6-1.3-0.9-5.4-3.1-8.2
					C132.9,140.1,132.8,140,132.8,139.9z M142.4,140.4c-0.9,3.4-0.9,6.4-0.1,7.6c0.2,0.3,0.4,0.4,0.7,0.4c0.2,0,0.3-0.1,0.4-0.2
					C144,147.2,143.8,144.2,142.4,140.4z M151.7,141.6c-1.8,2.4-2.7,4.7-2.3,5.8c0.1,0.1,0.2,0.5,1,0.7
					C150.9,147.5,151.5,145.1,151.7,141.6z"/>
			</g>
			<path fill="#1B171B" d="M158.4,207.6c0-2.7,0-20.9,0-20.9s-7.5,1.1-15.3,1.1s-15.3-1.1-15.3-1.1s0,18.3,0,20.9
				c0,2.7,2.6,5.6,5.5,5.6s5.1,1,5.6,2.6c0.4,1.2,1.3,2.6,4.1,2.6s3.7-1.4,4.1-2.6c0.5-1.6,2.7-2.6,5.6-2.6
				C155.8,213.2,158.4,210.4,158.4,207.6z"/>
		</g>
	</g>
	<g id="Sterne">
		<polygon fill="#FFFFFF" points="241.7,70.2 245.2,78.1 253.8,78.9 247.4,84.7 249.2,93.2 241.7,88.8 234.3,93.2 236.1,84.7
			229.7,78.9 238.3,78.1 		"/>
		<polygon fill="#FFFFFF" points="202.9,201.7 207.1,211.2 217.3,212.2 209.6,219 211.8,229.1 202.9,223.9 194.1,229.1 196.3,219
			188.6,212.2 198.8,211.2 		"/>
		<polygon fill="#FFFFFF" points="120.4,236.2 122.4,240.9 127.5,241.4 123.7,244.8 124.8,249.8 120.4,247.2 116,249.8 117,244.8
			113.2,241.4 118.3,240.9 		"/>
		<polygon fill="#FFFFFF" points="130.4,59.2 132.4,63.9 137.5,64.4 133.8,67.8 134.8,72.8 130.4,70.2 126,72.8 127,67.8
			123.2,64.4 128.3,63.9 		"/>
		<polygon fill="#FFFFFF" points="48.9,160.9 51.4,166.6 57.5,167.2 52.9,171.2 54.2,177.2 48.9,174.1 43.7,177.2 45,171.2
			40.4,167.2 46.5,166.6 		"/>
		<polygon fill="#FFFFFF" points="80.1,36.4 83.8,44.8 93,45.7 86.1,51.9 88.1,60.9 80.1,56.2 72.1,60.9 74.1,51.9 67.2,45.7
			76.4,44.8 		"/>
	</g>
	<g id="Punkte">
		<circle fill="#1B171B" cx="64.4" cy="221.4" r="5.9"/>
		<circle fill="#1B171B" cx="134" cy="256" r="4.2"/>
		<circle fill="#1B171B" cx="150.4" cy="36.3" r="4.2"/>
		<circle fill="#1B171B" cx="39.8" cy="109.5" r="7.7"/>
		<circle fill="#1B171B" cx="204.1" cy="70.8" r="7.7"/>
		<circle fill="#1B171B" cx="252.5" cy="153.9" r="7.7"/>
		<circle fill="#1B171B" cx="210.2" cy="180.1" r="4.2"/>
	</g>
	<g id="Glow">
		<g>
			<g>
				<polygon fill="#FFFFFF" points="90.1,78.9 101.6,90.4 100,92 88.5,80.5 				"/>
			</g>
			<g>
				<polygon fill="#FFFFFF" points="186.3,176.2 197.6,187.7 196.1,189.4 184.7,177.7 				"/>
			</g>
		</g>
		<g>
			<g>
				<polygon fill="#FFFFFF" points="196.8,79.5 198.3,81.1 186.7,92.5 185.2,91 				"/>
			</g>
			<g>
				<polygon fill="#FFFFFF" points="99.6,175.8 101.1,177.3 89.5,188.8 88,187.2 				"/>
			</g>
		</g>
		<g>
			<g>

					<rect x="66.5" y="132.7" transform="matrix(-1 -2.900032e-03 2.900032e-03 -1 153.6124 267.8235)" fill="#FFFFFF" width="21" height="2.2"/>
			</g>
			<g>

					<rect x="198.7" y="133.4" transform="matrix(-1 -2.900032e-03 2.900032e-03 -1 418.0108 269.6069)" fill="#FFFFFF" width="21" height="2.2"/>
			</g>
		</g>
		<g>
			<g>

					<rect x="142.4" y="57.6" transform="matrix(-1 -2.900032e-03 2.900032e-03 -1 286.8031 136.6162)" fill="#FFFFFF" width="2.2" height="21"/>
			</g>
		</g>
		<g>
			<g>

					<rect x="141.7" y="189.7" transform="matrix(-1 -2.900032e-03 2.900032e-03 -1 285.0201 400.8151)" fill="#FFFFFF" width="2.2" height="21"/>
			</g>
		</g>
	</g>
</g>
</svg>
        <svg viewBox="0 0 128 128" height="100%" width="100%" pointer-events="none" display="block" id="svg-13">
            <path fill="#448AFF" d="M0 0h128v128H0z"/>
            <g fill="#00BFA5">
                <path d="M73 18.7c-4.8 0-9.7.8-14 2.3-.1.1-.2.2-.4.3l-7.3 4.6c-.6.4-1.4.4-2 .1-.3-.2-.6-.4-.8-.7l-.7-1.1c-.6-1-.3-2.2.6-2.8l7.3-4.6c.4-.2.8-.3 1.2-.3-5.5-3-23.7-10.7-33.7 10.7-11.8 25.4 11 50.2-14.4 62.6 0 0 26.2 13.7 40.9-24.8 3.7 3.2 8.8 5.8 16 7.4-.6-5.6.8-9.8-2.1-12.8-1.3-1.4-2.7-1.5-4-2.4-.7-.5-1.4-.9-2-1.3-1.5-.9-2.6-1.3-2.8-1.4-1.1-1-1.9-2.4-2.1-4.1-.5-3.6-2.2-6.9 1.1-7.4.8-.1 1.6-.1 2.4.2 8-1.5 11.6-6.7 12.8-8.9 3.4 4.8 11.7 9.8 31.9 6.8.3 1.1.6 1.2.8 2.4l.5-1.3c-.1-13-13.2-23.5-29.2-23.5zM56.1 43.2zm5.3 46.5s6 8.6 19.4 9.7c5.1.4 11.3-.3 18.6-2.9-.1-.6-.3-1.2-.4-1.7-.2-1.1-3.2-18-3.4-23.6-.2-6.2.6-10 1.6-12.4h7.3l-2.1-8.5c-.1-2-.4-3.9-.6-5.6 0-.3-.1-.7-.2-1-.2-1.1-.4-2.3-.8-3.4-20.2 3-28.5-2-31.9-6.8-1.2 2.1-4.8 7.4-12.8 8.9-.8-.2-1.6-.3-2.4-.2-3.3.5-5.6 3.8-5.1 7.4.2 1.7 1 3.1 2.1 4.1.2.1 1.3.5 2.8 1.4.6.4 1.3.8 2 1.3 1.3.9 2.6 2 4 3.4 2.9 3 5.6 7.2 6.1 12.8.5 4.5-.6 10.2-4.2 17.1zm27.5-41.2c.7 0 1.3.6 1.3 1.3s-.6 1.3-1.3 1.3-1.3-.6-1.3-1.3.6-1.3 1.3-1.3zm-32.8-5.3c.1-.1 0-.1 0 0zm-2.4 57.7l.2-.2-.2.2z"/>
                <circle cx="88.9" cy="49.8" r="2"/>
                <path d="M80.8 99.3c-13.3-1.1-19.4-9.7-19.4-9.7-1.8 3.4-4.3 7.1-7.5 11l-.3.3c-.4.5-.9 1.1-1.4 1.7-.7.9-1.6 2.1-2.8 3.7-2.3 3.2-5.4 7.8-8.8 13.5-1.4 2.4-2.9 5.1-4.4 8 0 0 0 .1-.1.1h71.3c-.6-1.6-1.3-3.2-1.7-4.8-2.2-8.6-4.6-17.9-6.5-26.8-7.2 2.8-13.3 3.5-18.4 3zM55.7 16.7l-7.3 4.6c-1 .6-1.3 1.9-.6 2.8l.7 1.1c.2.3.5.6.8.7.6.3 1.4.3 2-.1l7.3-4.6.4-.3c.7-.7.8-1.7.3-2.5l-.7-1.1c-.4-.6-1-.9-1.6-1-.5 0-1 .1-1.3.4z"/>
            </g>
            <path fill="#444"
                  d="M73 18.7c-4.8 0-9.7.8-14 2.3-.1.1-.2.2-.4.3l-7.3 4.6c-.6.4-1.4.4-2 .1-.3-.2-.6-.4-.8-.7l-.7-1.1c-.6-1-.3-2.2.6-2.8l7.3-4.6c.4-.2.8-.3 1.2-.3-5.5-3-23.7-10.7-33.7 10.7-11.8 25.4 11 50.2-14.4 62.6 0 0 26.2 13.7 40.9-24.8 3.7 3.2 8.8 5.8 16 7.4-.6-5.6.8-9.8-2.1-12.8-1.3-1.4-2.7-1.5-4-2.4-.7-.5-1.4-.9-2-1.3-1.5-.9-2.6-1.3-2.8-1.4-1.1-1-1.9-2.4-2.1-4.1-.5-3.6-2.2-6.9 1.1-7.4.8-.1 1.6-.1 2.4.2 8-1.5 11.6-6.7 12.8-8.9 3.4 4.8 11.7 9.8 31.9 6.8.3 1.1.6 1.2.8 2.4l.5-1.3c-.1-13-13.2-23.5-29.2-23.5zM56.1 43.2z"/>
            <path fill="#FFE0B2"
                  d="M61.4 89.7s6 8.6 19.4 9.7c5.1.4 11.3-.3 18.6-2.9-.1-.6-.3-1.2-.4-1.7-.2-1.1-3.2-18-3.4-23.6-.2-6.2.6-10 1.6-12.4h7.3l-2.1-8.5c-.1-2-.4-3.9-.6-5.6 0-.3-.1-.7-.2-1-.2-1.1-.4-2.3-.8-3.4-20.2 3-28.5-2-31.9-6.8-1.2 2.1-4.8 7.4-12.8 8.9-.8-.2-1.6-.3-2.4-.2-3.3.5-5.6 3.8-5.1 7.4.2 1.7 1 3.1 2.1 4.1.2.1 1.3.5 2.8 1.4.6.4 1.3.8 2 1.3 1.3.9 2.6 2 4 3.4 2.9 3 5.6 7.2 6.1 12.8.5 4.5-.6 10.2-4.2 17.1zm27.5-41.2c.7 0 1.3.6 1.3 1.3s-.6 1.3-1.3 1.3-1.3-.6-1.3-1.3.6-1.3 1.3-1.3zm-32.8-5.3c.1-.1 0-.1 0 0z"/>
            <path fill="#FFCC80" d="M53.7 100.9l.2-.2-.2.2z"/>
            <circle fill="#444" cx="88.9" cy="49.8" r="2"/>
            <path fill="#FF5722"
                  d="M80.8 99.3c-13.3-1.1-19.4-9.7-19.4-9.7-1.8 3.4-4.3 7.1-7.5 11l-.3.3c-.4.5-.9 1.1-1.4 1.7-.7.9-1.6 2.1-2.8 3.7-2.3 3.2-5.4 7.8-8.8 13.5-1.4 2.4-2.9 5.1-4.4 8 0 0 0 .1-.1.1h71.3c-.6-1.6-1.3-3.2-1.7-4.8-2.2-8.6-4.6-17.9-6.5-26.8-7.2 2.8-13.3 3.5-18.4 3z"/>
            <path fill="#00BFA5"
                  d="M55.7 16.7l-7.3 4.6c-1 .6-1.3 1.9-.6 2.8l.7 1.1c.2.3.5.6.8.7.6.3 1.4.3 2-.1l7.3-4.6.4-.3c.7-.7.8-1.7.3-2.5l-.7-1.1c-.4-.6-1-.9-1.6-1-.5 0-1 .1-1.3.4z"/>
        </svg>
        <svg viewBox="0 0 128 128" height="100%" width="100%" pointer-events="none" display="block" id="svg-14">
            <path fill="#B388FF" d="M0 0h128v128H0z"/>
            <path fill="#1C3AA9" d="M70.5 128h12.4c-5.1-15.8-6.6-23.9-7.2-28.4-1.9 8.8-4 19.3-5.2 28.4z"/>
            <path d="M92.9 32.8l-.2.1c.1 0 .2 0 .2-.1zm-1.2.5l-.7.1.7-.1zm.6-.2l-.3.1.3-.1zm-52 .3c-.2 0-.5 0-.7-.1.3 0 .5.1.7.1zm-.9-.2l-.5-.1.5.1zm-.7-.2c-.2-.1-.4-.2-.5-.3.1.1.3.2.5.3z"
                  fill="none"/>
            <path fill="#2A56C6" d="M82.9 90.8v.2-.2z"/>
            <path fill="#FFE0B2"
                  d="M31.2 47.2zM45.8 93c5.8 5.5 13.6 9.1 22.3 9.3 2.8-.1 5.4-.5 8-1.2l.8-3.8c4.3-19.3 9.7-37.4 15-52.9h6.9L94 36.2c-.2-1.2-.4-2.5-.7-3.6l-.4.3-.2.1-.4.2-.3.1-.3.1-.7.1H40.3c-.2 0-.5 0-.7-.1-.1 0-.1 0-.2-.1l-.5-.1-.2-.1c-.2-.1-.4-.2-.5-.3 0 0-.1 0-.1-.1-.1.2-.1.4-.1.7-1-.3-2-.4-3-.3-4.1.6-6.9 4.7-6.3 9.1.3 2 1.2 3.8 2.6 5 .3.1 1.6.7 3.4 1.7.8.4 1.6 1 2.5 1.6 1.5 1.1 3.2 2.5 4.9 4.1 0 0 16.3 12.3 3.4 38 .1.2.2.3.3.4zm34.1-51.9c.8 0 1.5.7 1.5 1.6 0 .9-.7 1.6-1.5 1.6s-1.5-.7-1.5-1.6.6-1.6 1.5-1.6z"/>
            <path fill="#2A56C6"
                  d="M68.1 102.3c-8.7-.2-16.5-3.8-22.3-9.3-.1-.1-.2-.2-.4-.3-3-.2-7.6.2-10.8.6-4.6.6-9.6 1.3-15 2.4-3.6.7-8.1 1.9-19.7 5.3v27h71.4c1.3-9.1 2.9-18.1 4.7-26.9-2.5.7-5.1 1.1-7.9 1.2z"/>
            <path fill="#6D4C41" d="M61.8 9.8c-7.3 1.1-13.6 5.1-17.9 10.8h43.7C81.5 12.7 71.9 8.3 61.8 9.8z"/>
            <path fill="#E65100"
                  d="M38.7 33l.2.1c.2.1.3.1.5.1.1 0 .1 0 .2.1l.7.1H91c.2 0 .5 0 .7-.1l.3-.1.3-.1c.1 0 .3-.1.4-.2l.2-.1.4-.3c1-.7 1.6-1.9 1.6-3.2v-4.8c0-2.2-1.8-4-4-4H40.4c-2.2 0-4 1.8-4 4v4.8c0 1.4.7 2.6 1.8 3.3 0 0 .1 0 .1.1s.2.2.4.3z"/>
            <ellipse fill="#444" cx="79.9" cy="42.7" rx="2" ry="2.2"/>
        </svg>
        <svg viewBox="0 0 128 128" height="100%" width="100%" pointer-events="none" display="block" id="svg-15" y="256">
            <path fill="#FF80AB" d="M0 0h128v128H0z"/>
            <path fill="#5D4037"
                  d="M87.3 11.7c-7.6 0-14.1 4.9-16.4 11.7-2.8-1.6-5.9-2.7-9.1-3.1-13.9-2.1-26.9 7.1-31.1 21.1 5 .8 9.5 3.1 13.4 3.1 1.4-.6 3-.9 4.6-.9 1.1 0 2.2.2 3.3.5 10-1.3 15.2-5.2 17.9-9 .3.5.6 1 1 1.6v.1c2.1 3.1 6.6 7.7 14.7 9.2.9-.3 1.9-.4 3-.2 1.5.2 2.8-1.1 3.8-.1 7-2.2 12.2-8.8 12.2-16.5 0-9.7-7.8-17.5-17.3-17.5z"/>
            <path d="M70.9 36.6c-.4-.6-.8-1.2-1-1.6.2.5.5 1 1 1.6z" fill="none"/>
            <path fill="#5D4037" d="M85.6 45.9z"/>
            <path fill="#FFCC80"
                  d="M48.6 63.8c5.6 0 10.1-4.5 10.1-10.1s-4.5-10.1-10.1-10.1-10.1 4.5-10.1 10.1c.1 5.5 4.6 10.1 10.1 10.1zm-1.7-10.5c0 .9-.7 1.6-1.6 1.6-.9 0-1.6-.7-1.6-1.6 0-.9.7-1.6 1.6-1.6.9-.1 1.6.7 1.6 1.6zm38.7-7.4z"/>
            <path fill="#F9A825"
                  d="M35.6 117.3c0 2.5 2.1 4.6 4.6 4.6s4.6-2.1 4.6-4.6c0-1.7-.9-3.2-2.3-4-.8-.2-1.8-.3-2.7-.6-2.3.3-4.2 2.2-4.2 4.6z"/>
            <circle fill="#F9A825" cx="64.3" cy="117.1" r="4.6"/>
            <path fill="#F9A825"
                  d="M83.4 117.3c0 2.5 2.1 4.6 4.6 4.6 1.5 0 2.8-.7 3.7-1.8l-.7-.9-.6-.8c-.6-.7-1.3-1.5-1.8-2.1l-.3-.4c-.4-.5-.8-.9-1.2-1.5-.3-.4-.6-.8-.9-1.3-1.7.8-2.8 2.4-2.8 4.2z"/>
            <path fill="#FFEE58"
                  d="M91.6 119.8c-.8 1-2.1 1.7-3.5 1.7-2.4 0-4.4-2-4.4-4.4 0-1.8 1-3.3 2.5-4-3-3.9-5.3-7.5-7.2-11 .2.1-7.3 10.6-23.7 12-3.8.3-8 .1-12.8-.8 1.3.8 2.2 2.2 2.2 3.8 0 2.4-2 4.4-4.4 4.4s-4.4-2-4.4-4.4c0-2.3 1.8-4.2 4-4.4-2.4-.6-4.8-1.3-7.4-2.2-1.2 5.7-2.6 11.6-4.1 17.5h69c-1.4-2-2.6-3.8-3.7-5.3m-29.4-1.2c-2.4 0-4.4-2-4.4-4.4s2-4.4 4.4-4.4 4.4 2 4.4 4.4c0 2.4-2 4.4-4.4 4.4z"/>
            <path fill="#FFCC80"
                  d="M92.4 45.6c-1-1-2.4-1.7-3.8-1.9-1-.2-2-.1-3 .2-8.1-1.5-12.6-6.1-14.7-9.2-.5-.7-.8-1.2-1.1-1.7-2.7 3.8-7.9 7.7-17.9 9l.9.3-9.4.4.6-.3c-3.9 0-8.3-.4-13.4-1.1-.5 1.7-.9 3.5-1.2 5.3-.2 1.8-.5 3.8-.6 6l-.3 2-2.3 9.4h9c1.2 3 2.1 7.7 1.9 15.3-.2 6.9-3.9 27.7-4.2 29-.1.7-.3 1.4-.5 2.1 2.6.9 5 2 7.3 2.5l2.7.5c4.8.9 9.2 1.4 13 1.1 16.4-1.3 24-12 24-12-9.8-18.4-4.6-30.7 2.1-37.5 1.6-1.7 3.3-3 4.9-4.1.9-.6 1.7-1.2 2.5-1.6 1.8-1.1 3.2-1.6 3.4-1.7 1.3-1.2 2.3-3 2.6-5 .3-2.6-.7-5.3-2.5-7zm-32.9 2.7c.5 1 .8 2 1 3.1l-1-3.1z"/>
            <path fill="#DB4437"
                  d="M36.6 54.7c.5 6.2 5.7 11.1 12 11.1 6.7 0 12.1-5.4 12.1-12.1 0-5.5-3.7-10.2-8.8-11.6-1-.3-2.1-.5-3.3-.5-1.6 0-3.2.3-4.6.9-4.1 1.7-7.1 5.6-7.4 10.2h-7.7l-.1.9-.3 1.1h8.1zm12-11.1c5.6 0 10.1 4.5 10.1 10.1s-4.5 10.1-10.1 10.1-10.1-4.5-10.1-10.1c.1-5.6 4.6-10.1 10.1-10.1z"/>
            <circle fill="#444" cx="45.3" cy="53.3" r="2"/>
        </svg>
        <svg viewBox="0 0 128 128" height="100%" width="100%" pointer-events="none" display="block" id="svg-16">
            <path fill="#B388FF" d="M0 0h128v128H0z"/>
            <path fill="#444"
                  d="M58.4 24c4.2 5.9 23.9 10.2 38.9 4.6-4.2-14-17.1-23.2-31.1-21.1-11.7 1.8-20.8 11.2-23.7 22.9 7 3.2 14.5-3.8 15.9-6.4z"/>
            <path fill="#689F38"
                  d="M72.7 101.3C56.3 100 48.8 89.4 48.8 89.4c-2.2 4.2-5.2 8.7-9.2 13.5l-.3.4-1.7 2c-.9 1.1-2 2.6-3.4 4.5-2.8 3.9-6.6 9.5-10.8 16.6l-.8 1.4h80.1c-2.5-9.8-5.1-20.3-7.3-30.2-8.9 3.4-16.5 4.3-22.7 3.7z"/>
            <path fill="#FFCC80"
                  d="M101.8 51.3l-2.6-10.4c-.2-2.5-.5-4.9-.7-6.9-.2-1.9-.6-3.6-1.2-5.3-24.8 3.7-35-2.5-39.1-8.4-1.5 2.6-5.8 8.4-15.6 10.2-.1.2-.1.5-.1.7-.9-.3-1.9-.4-3-.2-4.1.6-6.9 4.7-6.3 9.1.3 2 1.2 3.8 2.6 5 .3.1 1.6.7 3.4 1.7.8.4 1.6 1 2.5 1.6 1.5 1.1 3.2 2.5 4.9 4.1 6.6 6.8 12.1 18.6 2.4 37 0 0 7.4 10.6 23.8 11.9 6.3.5 13.8-.3 22.8-3.6l-.5-2.1c-.3-1.4-4-22.1-4.2-29-.2-7.6.7-12.3 1.9-15.3h9zM81.1 40.5c0-.9.7-1.6 1.6-1.6.9 0 1.6.7 1.6 1.6 0 .9-.7 1.6-1.6 1.6-.9.1-1.6-.7-1.6-1.6zm-41.7 62.8s0 .1-.1.1l.3-.4c0 .1-.1.2-.2.3z"/>
            <circle fill="#444" cx="82.7" cy="40.5" r="2"/>
        </svg>


        <svg viewBox="0 0 128 128" height="100%" width="100%" pointer-events="none" display="block" id="svg-2">
            <path fill="#B9F6CA" d="M0 0h128v128H0z"/>
            <path fill="#FFCC80"
                  d="M70.1 122.5l.6-.1c6.1-.8 12-2.4 17.7-4.8 1.2-.5 2.4-1.1 3.2-2.1 1.3-1.7-.1-5.6-.5-7.7-.7-3.8-1.3-7.7-1.9-11.5-.7-4.5-1.5-9.1-1.6-13.7-.2-7.6.7-12.3 1.9-15.3h9l-2.6-10.4c-.2-2.4-.4-4.8-.7-6.8-.2-1.9-.6-3.6-1.2-5.3-14.9 2.2-24.5.9-30.7-1.8l-23.1 4.5-.7.1h-.7c-.4-.1-.9-.2-1.2-.4-.4 0-.9 0-1.4.1-4.1.6-6.9 4.7-6.3 9.1.3 2 1.2 3.8 2.6 5 .3.1 1.6.7 3.4 1.7.8.4 1.6 1 2.5 1.6 1.5 1.1 3.2 2.5 4.9 4.1 5.8 5.9 8.4 13.8 7.4 22-.6 4.7-2.2 9.4-4.4 13.6-.5 1-1 1.6-1.1 2.8-.1 1.1-.1 2.3.1 3.4.4 2.3 1.5 4.4 3 6.2 2.6 3.1 6.4 5 10.4 5.8 3.8.4 7.6.3 11.4-.1zm9.5-67.6c.9 0 1.6.7 1.6 1.6 0 .9-.7 1.6-1.6 1.6s-1.6-.7-1.6-1.6c-.1-.8.7-1.6 1.6-1.6zM128 97.7c-3.3 1.9-6.6 3.7-9.9 5.3-3.2 1.5-6.3 2.9-9.6 4.2-.9.4-2.1.5-2.9 1.1-1.1.8-1.9 2.5-2.3 3.7-.6 1.6-.6 3.4.3 4.8.8 1.2 2.1 2 3.5 2.6 5.9 2.9 12.2 5.1 18.6 6.5 1.4.3 2.3 1.8 2.4.1V97.9c-.1.1-.1-.1-.1-.2z"/>
            <path d="M38.9 47.4zm.7 0z" fill="none"/>
            <path fill="#444" d="M94.2 44.9c-.8-2.6-1.8-5-3.2-7.2l-7.2 1.4-20.4 4c6.3 2.7 15.9 4 30.8 1.8z"/>
            <path fill="#E65100"
                  d="M38.9 48.4h.7c.2 0 .5 0 .7-.1l23.1-4.5 20.4-4 23.3-4.5c1.9-.4 3.2-2 2.9-3.6-.3-1.6-2.1-2.6-4.1-2.3l-19.6 3.8-1.3-6.8C83 15.5 70 8.7 55.9 11.5c-14 2.7-23.7 13.9-21.6 24.9h.1l1.7 9v.7c.2.8.7 1.4 1.4 1.9.5.1 1 .3 1.4.4z"/>
            <circle fill="#444" cx="79.6" cy="56.5" r="2"/>
            <path fill="#689F38"
                  d="M128 128v-1.8L106.3 108l-.4.2-2.9 1.3c-3 1.3-6 2.6-9.2 3.8l-1.4.5c-9 3.3-16.5 4.1-22.8 3.6-16.4-1.3-23.8-11.9-23.8-11.9-2.2 4.2-5.2 8.7-9.2 13.5l-.3.4-1.7 2c-.9 1.1-2 2.6-3.4 4.5-.4.6-.9 1.3-1.4 2l98.2.1z"/>
            <path fill="#FFCC80" d="M36.3 119.3s.1-.2.2-.3c-.1.1-.2.2-.2.3z"/>
        </svg>
        <svg version="1.1" id="lamp" xmlns="http://www.w3.org/2000/svg" xmlns:xlink="http://www.w3.org/1999/xlink" x="0px" y="0px"
  	 viewBox="0 0 75 100" style="enable-background:new 0 0 75 100;" xml:space="preserve">
  <path class="lamp" d="M37.5,26.5c-11.1,0-20.2,8.8-20.2,19.5c0,7,2.8,11.1,4.9,14.2c1.3,1.9,2,3,2,4.1c0,2.5,1.4,4.9,3.8,6.7
  	c0.1,1.5,0.3,5.2,0.3,5.2c0,0,0,0,0,0c0,1,0.6,3.2,4.2,4.4c0.4,0.6,1,1.2,1.6,1.6c0.4,0.3,0.9,0.4,1.4,0.4h3.9c0.5,0,1-0.1,1.4-0.4
  	c0.7-0.5,1.2-1,1.6-1.6c3.6-1.2,4.1-3.4,4.2-4.4c0,0,0.2-3.7,0.3-5.2c2.4-1.8,3.8-4.2,3.8-6.7c0-1.1,0.7-2.2,2-4.1
  	c2.1-3,4.9-7.2,4.9-14.2C57.7,35.3,48.6,26.5,37.5,26.5z M48.5,57.4c-1.5,2.2-2.9,4.2-2.9,7c0,1.2-1.1,2.2-1.9,2.7H31.3
  	c-0.8-0.6-1.9-1.5-1.9-2.7c0-2.8-1.4-4.8-2.9-7c-1.9-2.8-4-5.9-4-11.3c0-7.9,6.8-14.4,15.1-14.4c8.3,0,15.1,6.5,15.1,14.4
  	C52.6,51.5,50.4,54.6,48.5,57.4z"/>
  <g class="lampLight">
  	<path d="M37.5,22.7c0.7,0,1.3-0.6,1.3-1.3v-3.8c0-0.7-0.6-1.3-1.3-1.3c-0.7,0-1.3,0.6-1.3,1.3v3.8C36.2,22.2,36.8,22.7,37.5,22.7z"
  		/>
  	<path d="M24,25.4c0.2,0.4,0.7,0.6,1.1,0.6c0.2,0,0.4-0.1,0.6-0.2c0.6-0.4,0.8-1.1,0.5-1.7l-1.9-3.3c-0.4-0.6-1.1-0.8-1.7-0.5
  		c-0.6,0.4-0.8,1.1-0.5,1.7L24,25.4z"/>
  	<path d="M16.6,32.8l-3.3-1.9c-0.6-0.4-1.4-0.1-1.7,0.5c-0.4,0.6-0.1,1.4,0.5,1.7l3.3,1.9c0.2,0.1,0.4,0.2,0.6,0.2
  		c0.4,0,0.9-0.2,1.1-0.6C17.4,33.9,17.2,33.1,16.6,32.8z"/>
  	<path d="M13.9,46.3c0-0.7-0.6-1.3-1.3-1.3H8.8c-0.7,0-1.3,0.6-1.3,1.3c0,0.7,0.6,1.3,1.3,1.3h3.8C13.3,47.6,13.9,47,13.9,46.3z"/>
  	<path d="M15.3,57.7L12,59.6c-0.6,0.4-0.8,1.1-0.5,1.7c0.2,0.4,0.7,0.6,1.1,0.6c0.2,0,0.4-0.1,0.6-0.2l3.3-1.9
  		c0.6-0.4,0.8-1.1,0.5-1.7C16.7,57.5,15.9,57.3,15.3,57.7z"/>
  	<path d="M63,59.6l-3.3-1.9c-0.6-0.4-1.4-0.1-1.7,0.5s-0.1,1.4,0.5,1.7l3.3,1.9c0.2,0.1,0.4,0.2,0.6,0.2c0.4,0,0.9-0.2,1.1-0.6
  		C63.8,60.7,63.6,59.9,63,59.6z"/>
  	<path d="M66.2,45.1l-3.8,0l0,0c-0.7,0-1.3,0.6-1.3,1.3c0,0.7,0.6,1.3,1.3,1.3l3.8,0l0,0c0.7,0,1.3-0.6,1.3-1.3
  		C67.5,45.6,66.9,45.1,66.2,45.1z"/>
  	<path d="M59.1,35.2c0.2,0,0.4-0.1,0.6-0.2l3.3-1.9c0.6-0.4,0.8-1.1,0.5-1.7c-0.4-0.6-1.1-0.8-1.7-0.5l-3.3,1.9
  		c-0.6,0.4-0.8,1.1-0.5,1.7C58.2,34.9,58.6,35.2,59.1,35.2z"/>
  	<path d="M49.3,25.9c0.2,0.1,0.4,0.2,0.6,0.2c0.4,0,0.9-0.2,1.1-0.6l1.9-3.3c0.4-0.6,0.1-1.4-0.5-1.7c-0.6-0.4-1.4-0.1-1.7,0.5
  		l-1.9,3.3C48.5,24.8,48.7,25.5,49.3,25.9z"/>
  </g>
</svg>
        <svg viewBox="0 0 128 128" height="100%" width="100%" pointer-events="none" display="block" id="svg-3">
            <path fill="#80D8FF" d="M0 0h128v128H0z"/>
            <path fill="#5D4037"
                  d="M53.7 68.3c.9-.1 1.7-.3 2-.9.1-.2.2-.4.2-.6.2-1-.2-2-.5-3-1.2-3.2-2-6.4-2.2-9.8-.3-3.9.4-7.8 1-11.6l12.7-8.1c.8-.5 1.8-1.5 2.7-1.7.9-.3 2.4.6 3.3.8 1.3.4 2.6.6 4 .9 5.4.9 10.9.7 16.2-.6 1.3-.3 2.7-1.1 4-1.3-.3-2.1-1.5-4.3-2.5-6.1-1-1.9-2.2-3.7-3.6-5.3-2.7-3.2-6-5.8-9.8-7.5-3.3-1.5-6.8-2.4-10.4-2.5 0 0-50.8-8.1-42.4 56.4l12.8.5 8.7.3c.9-.1 2.5.2 3.8.1z"/>
            <path d="M59.5 25.7l-.3-.4c0 .2.1.3.3.4zm-1-1.2c-.2-.2-.3-.4-.4-.6.1.2.2.4.4.6zm.4.6l-.3-.4.3.4zm1.1 1.2l-.4-.4c.2.1.3.3.4.4zM46.3 56.2zm.5.4l.3.3-.3-.3zm-.2-.2l.2.2-.2-.2zm-.2-.2l.1.1-.1-.1zm14.3-29.3l-.4-.4c.1.1.2.3.4.4zm8.6 4.7l-1-.3c.3 0 .6.2 1 .3zm1.3.3c-.4-.1-.8-.2-1.1-.3.3.1.7.2 1.1.3zm-23.4 25l.4.4c-.2-.1-.3-.3-.4-.4zm27-24.2l-.9-.2c.3.1.6.2.9.2zm-12.8-5.2l-.5-.4c.1.1.3.2.5.4zm6.7 3.7c-.3-.1-.6-.2-.9-.4.2.1.6.2.9.4zm-5.9-3.1l-.6-.5.6.5zm3.7 2.2c-1.4-.6-2.6-1.3-3.6-2.1 1 .7 2.2 1.4 3.6 2.1zm1.1.4l-.9-.4c.2.2.5.3.9.4zm20.1 2.7h-.8.8zm-3.2 0h1.4-1.4zm-3.9 0l1.9.1c-.6 0-1.1 0-1.7-.1H80zm2 0h1.6H82zm6.1-.1c.3 0 .7 0 1-.1h-.2c-.2.1-.5.1-.8.1zm6.2-.6l-.7.1c1.2-.1 2.4-.3 3.6-.5l-2.2.3c-.2.1-.5.1-.7.1zm-3.4.4c-.3 0-.6 0-.8.1.9-.1 1.9-.2 2.9-.3l-.8.1c-.5 0-.9 0-1.3.1zM51.1 61.9c.2.3.4.6.5 1-.2-.4-.3-.7-.5-1zm-3.5-4.6c.8.8 1.8 1.9 2.8 3.5-1-1.5-2-2.7-2.8-3.5zm2.9 3.6l.6.9c-.3-.3-.5-.6-.6-.9zm1.2 2.1l.6 1.1c-.3-.4-.4-.8-.6-1.1zm26.5-29.8l-.9-.1c-.2 0-.3 0-.5-.1l-.9-.1h-.2c1.3.2 2.6.3 4 .4-.3 0-.6 0-.9-.1-.2.1-.4.1-.6 0zm-3.8-.4l1.1.2-.9-.1c-.1-.1-.2-.1-.2-.1zm-3.7-.8c.7.2 1.5.4 2.3.5l-.9-.2-1.4-.3zM52.2 64.1c.6 1.2 1.1 2.6 1.5 4.1-.4-1.5-.9-2.9-1.5-4.1z"
                  fill="none"/>
            <path fill="#E65100"
                  d="M101.3 128h.3c-2.4-9.5-4.8-19.4-6.8-28.7-7.6 2.7-39.3.6-45.1-5.1-2.5 4.9-6 10.3-10.8 16.2H97l4.3 17.6z"/>
            <path fill="#2A56C6" d="M97.2 92.5v-.2.2z"/>
            <path fill="#00838F" d="M39.2 107.1l.3-.4-.3.3v.1z"/>
            <path fill="#EE8100"
                  d="M101.6 128c-1.5-5.8-3-11.8-4.3-17.7H38.9c-.9 1.1-2.1 2.2-3.1 3.3-.2.2-.3.4-.5.5-4 4.6-7.5 9.2-10.4 13.8h76.7z"/>
            <path fill="#FFE0B2"
                  d="M72.4 103.8c5.9-.2 14.8-1.8 22.4-4.5-.3-1.4-.6-2.7-.8-4.1-1.9-9.4-3.2-18.1-3.4-25-.5-19.6 6.6-20.2 6.6-20.2h2.1c0-4.2-.5-8.8-.9-12.3-.2-1.9-.6-3.6-1.2-5.3l-3.6.5-.6.1-2.9.3c-.3 0-.6 0-.9.1-.3 0-.7 0-1 .1-.3 0-.7 0-1 .1h-5.1c-.7 0-1.3 0-1.9-.1h-.3c-1.4-.1-2.8-.2-4-.4h-.2l-1.1-.2h-.2l-.9-.2c-.1 0-.2 0-.3-.1l-2.3-.5h-.1c-.4-.1-.8-.2-1.1-.3-.1 0-.1 0-.2-.1l-1-.3c-.1 0-.1 0-.2-.1-.3-.1-.6-.2-.9-.4-.1 0-.1 0-.2-.1l-.9-.4s-.1 0-.1-.1c-1.4-.6-2.6-1.3-3.6-2.1l-.1-.1-.6-.5-.2-.2-.5-.4-.2-.2-.4-.4-.2-.2-.4-.4-.2-.2-.3-.4-.2-.2-.3-.4-.1-.2c-.2-.2-.3-.4-.4-.6l-8 24.9-11.2-14.1c-4.1.6-6.9 4.7-6.3 9.1.3 2 1.2 3.8 2.6 5 .3.1 1.6.7 3.4 1.7.8.4 1.6 1 2.5 1.6 1.5 1.1 3.2 2.5 4.9 4.1h.1l.1.1.2.2.1.1.3.3.1.1.4.4c.8.8 1.8 1.9 2.8 3.5v.1l.6.9s0 .1.1.1c.2.3.4.6.5 1 0 0 0 .1.1.1l.6 1.1c.6 1.2 1.1 2.6 1.5 4.1 1.7 6.2 1.6 14.8-4 25.9 5.6 5.8 13.6 9.4 22.5 9.7z"/>
            <circle fill="#444" cx="84.2" cy="44.1" r="2"/>
        </svg>
        <svg viewBox="0 0 128 128" height="100%" width="100%" pointer-events="none" display="block" id="svg-4">
            <path fill="#84FFFF" d="M0 0h128v128H0z"/>
            <path fill="#444"
                  d="M28 54.2c1-.2 1.5.5 2.8.8 1.3.3 2.7.2 4-.2 2.2-.7 4.1-2.1 6.1-3.4 12.6-8.2 28.9-10.4 43.2-5.8 3 1 6 2.3 8 4.7.9 1.1 1.6 2.4 2.5 3.6s2.1 2.2 3.5 2.4c5.2.8 4.9-8.6 4.9-11.8 0-21.3-17.3-38.6-38.6-38.6S25.8 23.2 25.8 44.5c0 3.2.2 7 1.4 10 .3-.1.6-.2.8-.3z"/>
            <path fill="#8D6E63"
                  d="M44.3 103.5c0 .2-.1.4-.1.5-.5 3.9.3 7.9 2.3 11.3 2.1 3.7 5.4 6.6 9.2 8.3 3.1 1.4 6.5 2.1 10 2.1 5.3-.1 10.6-2 14.2-5.9 1.9-2.1 3.2-4.6 4.5-7.1.9-1.7 1.8-3.4 2.5-5.2.6-1.7.6-2.3-.5-3.6-2.2-2.6-4.1-5.7-4.9-9.1-.9-4.1.3-9.7 3.5-12.6 1.3-1.2 2.8-2.5 4.4-3.9l13.1-11c1.5-1.2 2.6-3 2.9-5.1.4-3.2-1.1-6.3-3.7-7.9-.5-.3-.9-.5-1.5-.7h-.1c-.2-.1-.5-.2-.7-.2h-.1c-.3-.1-.6-.1-.8-.2-1.4-.2-2.8 0-4 .5-.8-14-13.9-11-29.9-11-14.6 0-26.8-2.5-29.4 7.8-.2.9-.5 2-.8 3.1-1.2-.4-2.4-.6-3.8-.4-.3 0-.6.1-.9.2l-.3.1-.6.2-.3.1-.6.3-.2.1-.8.5c-2.3 1.7-3.6 4.5-3.2 7.6.3 2.1 1.3 3.8 2.8 5.1 0 0 10.9 9.3 11 9.3 4.6 3.9 8.2 10.7 8.6 16.7.1 1.8 0 3.7-.5 5.5-.1 1.5-1 3-1.3 4.6z"/>
            <path d="M100.4 53.6zm-.8-.3h-.1.1zm-70.5.3l-.3.1c.1 0 .2 0 .3-.1zm-.9.4l-.2.1s.1 0 .2-.1zm1.7-.7l-.3.1c.2 0 .3-.1.3-.1z"
                  fill="none"/>
            <path fill="#8D6E63" d="M39.3 109.5c-.1.1-.1.2-.1.2l.5-.6c-.1.1-.2.3-.4.4z"/>
            <path fill="#FFEB3B"
                  d="M62.8 128h6.8l-3.4-5zm-23.6-18.3c-.1.2-.2.4-.2.5-3.1.9-6 2.7-8.4 5.4l-.2.2s-.5.6-1.5 1.7c-.9 1.1-2.2 2.6-3.7 4.5-1.3 1.6-2.8 3.6-4.4 5.8h28.6l-10.2-18.1zm72.3 16.6c-1.3-2.2-2.3-3.9-3.1-5.1-.9-1.3-1.3-2-1.3-2l-.2-.3c-.6-.9-1.2-1.7-1.9-2.4-3.1-3.4-7-5.2-10.9-5.7l-.3.4L83.6 128h28.9c-.3-.6-.7-1.2-1-1.7z"/>
            <circle fill="#444" cx="79.5" cy="62.7" r="2"/>
            <circle fill="#444" cx="53.8" cy="62.8" r="2"/>
            <path fill="#F57F17"
                  d="M65.7 122.3l.5-.4L44 103.5l-4.3 5.6-.5.6L49.4 128h13.4l3.4-5zm0 0l.5.7 3.4 5h14l10.1-16.8.3-.4-6.4-6.2-.4.3-21 17z"/>
        </svg>
        <svg viewBox="0 0 128 128" height="100%" width="100%" pointer-events="none" display="block" id="svg-5">
            <path fill="#FFFF8D" d="M0 0h128v128H0z"/>
            <path fill="#C2C2C2" d="M51.7 31.4v-22s-19.6 2.5-15.8 29.9c11 0 14.8-4.3 15.8-7.9z"/>
            <path fill="#848484"
                  d="M94.1 39.8c.1-1 0-2-.1-3 0-1-.1-1.9-.2-2.9-.2-1.8-.4-3.5-.8-5.2-.6-2.9-1.5-5.8-2.9-8.4-1.1-2.2-2.6-4.2-4.3-6-1.6-1.6-3.3-2.9-5.3-3.9-1.8-1-3.8-1.7-5.8-2.2-2-.5-4-.8-6-.9-1.9-.1-3.8-.1-5.7 0-1.7.1-3.3.3-5 .6-1.3.2-2.5.5-3.8.8l-2.2.6-.4.1v20.8c0 1-.1 1.8.4 2.7.2.3.5.6.6.9.3.9.7 1.8 1.2 2.7 1.1 1.8 2.7 3.4 4.7 4.3 2.4 1.1 5.1 1.4 7.8 1.6 4.8.3 9.6.4 14.3.3 2.2 0 4.3-.3 6.4-.9 1.2-.3 2.4-.6 3.6-1 .6-.2 1.2-.4 1.8-.5.6-.2 1.2-.5 1.7-.5z"/>
            <path fill="#FFE0B2"
                  d="M66.8 116.8l17.9-8.7 3.1-8.2c-15.1-17 1.2-31.6 2.3-32.5h.1l13.2-11.1c1.5-1.2 2.5-3 2.8-5 .6-4.4-2.5-8.4-6.9-9.1-1.5-.2-3 0-4.3.6-.2-1-.5-1.9-.8-2.9-26.9 3.7-37.9-2.5-42.4-8.4-1.6 2.6-5.1 6.1-15.8 7.9-.2.9-.5 2-.8 3.1-1.2-.4-2.4-.6-3.8-.4-4.4.6-7.5 4.7-6.9 9.1.3 2 1.3 3.8 2.8 5l7.5 6.4c4.2 4.5 18.4 21.7 9 37l.7 3.7 4.7 4.6 17.6 8.9z"/>
            <path fill="#055524" d="M39.8 104.7zm54.3-.4l-.8 1.5-6.8 12.1V128H128v-2.3z"/>
            <path fill="#FFE0B2" d="M40.4 103.9c-.2.2-.3.4-.5.5 0 0-.1.1-.1.2v.1l.6-.8z"/>
            <circle fill="#444" cx="80" cy="51.7" r="2"/>
            <circle fill="#444" cx="54.3" cy="51.7" r="2"/>
            <path fill="#055524"
                  d="M39.8 104.7c-3.2.9-6.1 2.7-8.6 5.5l-.2.2s-.5.6-1.5 1.7c-.9 1.1-2.2 2.6-3.7 4.5-2.3 2.9-5.1 6.7-8.3 11.4h31v-7.8l-8.7-15.5z"/>
            <path fill="#848484" d="M65.3 67.3s2.7 9.8 14.5 9.8c0 0 3.9-18.5-14.5-18.5v8.7z"/>
            <path fill="#C2C2C2" d="M65.3 67.3v-8.7C46.9 58.6 50.8 77 50.8 77c11.8 0 14.5-9.7 14.5-9.7z"/>
            <path fill="#A7FFEB" d="M80.9 128h5.6v-10.1zm-21 0h13.8l-6.9-10zm-11.5 0h4.3l-4.3-7.8z"/>
            <path fill="#1DE9B6"
                  d="M66.8 118l-.5-.8.5-.4-22.9-17.3h-.1l-3.4 4.4-.6.8 8.6 15.5 4.3 7.8h7.2zm26.5-12.2l.8-1.5-6.4-4.4-20.9 16.9-.5.4.5.8 6.9 10h7.2l5.6-10.1z"/>
        </svg>
        <svg viewBox="0 0 128 128" height="100%" width="100%" pointer-events="none" display="block" id="svg-6">
            <path fill="#FF8A80" d="M0 0h128v128H0z"/>
            <path fill="#F2A600"
                  d="M30.3 43.7c3.1-.4 6.1 1 7.7 3.4 10.3-2 11-11.5 12.6-14.1 4.5 5.8 13.3 17.8 39.5 14.5 1.6-2.7 4.7-4.3 8-3.8.4 0 .7-1.9 1-1.8-.1-2.2-.3-4.4-.8-6.4v-.1C94.9 19.6 80.8 7.8 64 7.8c-15 0-27.8 9.4-32.8 22.6C29.8 34 29 38 28.9 42.1l.7 1.8.7-.2z"/>
            <path d="M89.1 102.8l.4-.3c-.1 0-.3.1-.4.3zm2.2-1.9l-.5.4c.2-.2.3-.3.5-.4zm-18 9.2c-.1 0-.2 0-.3.1.1-.1.2-.1.3-.1zm-2.4.4h-.2.2zm16.1-6.2l.3-.2-.3.2zm-9 4.5l.5-.2-.5.2zm4.9-2.1l.2-.1c-.1.1-.1.1-.2.1zm2-1.1l.5-.3-.5.3zm-4.6 2.3l.4-.2c-.1.1-.2.2-.4.2zm12.6-8.6zM30.3 41.7c-.3 0-.5.1-.7.1.2 0 .5 0 .7-.1zm35.9 69.2c-.6 0-1.2 0-1.9-.1.6 0 1.2.1 1.9.1z"
                  fill="none"/>
            <path fill="#F2A600"
                  d="M41.5 101.3l.8.7c-.3-.3-.5-.5-.8-.7zm1.4 1.1c.2.2.5.4.8.6-.3-.2-.6-.4-.8-.6zm1.3 1.1c.2.2.5.4.8.5-.2-.1-.5-.3-.8-.5zm54.1-68.1zM38.7 98.3c.4.4.8.8 1.1 1.3-.4-.4-.8-.8-1.1-1.3zm-7.6-67.9zm15.4 74.7l.5.3-.5-.3zm4.6 2.4l.3.1c-.1 0-.2 0-.3-.1zm-3.1-1.6l.5.3c-.2-.1-.4-.2-.5-.3zm13.6 4.6l-.9-.1.9.1zM88.9 67c-1.6 1.4-3.1 2.7-4.4 3.9-3.3 3.8-6.3 10.3-1 18.7 5.7-8.1 10.6-17.7 13.2-29.1L88.9 67zM41 100.8l-.8-.8.8.8zm8.5 6l.4.2c-.1-.1-.2-.2-.4-.2zm9.5 3.3h.1-.1zm-46.1 17.3c4.5-7.1 8.6-12.7 11.7-16.6 1.5-2 2.8-3.5 3.7-4.5 1-1.1 1.5-1.7 1.5-1.7l.2-.2c2.4-2.7 5.3-4.5 8.4-5.4.1-.2.2-.4.2-.5 0-.1 0-.2.1-.2 13.6-13.3 4.7-26.5-1.5-32.9l-4.4-3.8c-2.6 8.7-8.5 18.2-20.1 26.9-6.4 4.1-10.6 11.4-10.6 19.7 0 8.2 4.1 15.4 10.4 19.8l.4-.6z"/>
            <path fill="#FFE0B2"
                  d="M67.1 110.9h-2 2zM38.8 98.1c-.4.3 2.1 5.6 2.5 5.9 1.8 1.8 4.1 2.2 6.3 3.5 4.8 2.7 10.2 3.6 15.6 4.2 5.7.6 11.5-.5 16.8-2.6 2.5-1 4.8-2.3 7-3.8 1.2-.8 2.2-1.6 3.3-2.6.4-.3 2.4-3.6 2.7-3.3-4-3.3-8-6.9-10.4-11.6-2.2-4.2-2.6-9.1-.5-13.4 1.7-3.3 4.5-5.6 7.3-7.9 2.2-1.8 4.3-3.6 6.5-5.5l4.7-3.9c1-.8 2.1-1.6 2.8-2.7 1.5-2 1.9-4.6 1.2-7-1.4-4.8-7.1-7.2-11.5-4.9-1 .5-1.9 1.3-2.6 2.2l-.5.7-1.1.1c-.8.1-1.6.2-2.4.2-2.6.2-5.3.3-7.9.1-6.8-.3-13.5-2.1-19.1-6-3.6-2.4-6.3-5.6-8.9-9-.5.9-.8 1.9-1.1 2.8-.5 1.4-1 2.7-1.6 4-1.7 3.3-4.5 5.8-8.2 6.9-.5.2-1.1.3-1.7.4-.3-.5-.7-.9-1.1-1.3-.9-.6-2.1-1.3-3.3-1.6-2.5-.7-5.2-.2-7.2 1.4-3.9 3.1-4 9.2-.1 12.5l10.5 8.9c2.4 2 4.3 4.8 5.9 7.4 2.1 3.5 3.4 7.6 3.2 11.7-.3 5.6-3.3 10.4-7.1 14.2-.1.1 13.6-13.3 0 0z"/>
            <path fill="#80DEEA"
                  d="M93 99.4l-.2-.1-1.5 1.5-.5.4c-.4.4-.9.8-1.3 1.1l-.4.3c-.6.5-1.2.9-1.8 1.3l-.3.2c-.5.4-1.1.7-1.6 1l-.5.3-1.8 1-.2.1c-.7.4-1.4.7-2.1 1l-.4.2-1.8.7-.5.2c-.8.3-1.5.5-2.3.7l-2.4.6c-.1 0-.2 0-.3.1l-2.1.4h-.2c-1.5.2-3 .3-4.5.4h2-1.9c-.6 0-1.2 0-1.9-.1l-2.7-.3-.9-.1-1.6-.3h-.1c-2.7-.6-5.2-1.4-7.6-2.4l-.3-.1c-.4-.2-.8-.4-1.2-.5l-.4-.2c-.4-.2-.7-.4-1-.5l-.5-.3-1-.6-.5-.3c-.5-.3-1-.6-1.5-1-.3-.2-.5-.4-.8-.5l-.6-.5-.8-.6-.6-.5c-.3-.2-.5-.4-.8-.7l-.5-.5-.8-.8-.4-.4c-.4-.4-.8-.8-1.1-1.3-.1.2-.2.4-.2.5-3.1.9-6 2.7-8.4 5.4l-.2.2s-.5.6-1.5 1.7c-.9 1.1-2.2 2.6-3.7 4.5-3.1 3.9-7.2 9.5-11.7 16.6-.1.2-.2.4-.4.6H118c-2.7-5.4-5.1-9.8-7.1-13.1-1.3-2.2-2.3-3.9-3.1-5.1-.9-1.3-1.3-2-1.3-2l-.2-.3c-.6-.9-1.2-1.7-1.9-2.4-3.3-3.3-7.4-5.2-11.4-5.5z"/>
            <circle fill="#444" cx="78.9" cy="51.3" r="2"/>
            <circle fill="#444" cx="53.2" cy="51.3" r="2"/>
        </svg>
        <svg viewBox="0 0 128 128" height="100%" width="100%" pointer-events="none" display="block" id="svg-7">
            <path fill="#FFCC80" d="M41.6 123.8s0 .1-.1.1l.3-.4c-.1.2-.1.2-.2.3z"/>
            <path fill="#80D8FF" d="M0 0h128v128H0z"/>
            <path fill="#5D4037"
                  d="M29.3 123.1c4.1-6.9 7.8-12.4 10.5-16.2 1.4-1.9 2.5-3.4 3.3-4.4l1.7-2s0-.1.1-.1l.3-.3C49 95.4 51.9 91 54.1 87c9.5-17.8 6.1-29.3-.3-35.9-1.6-1.6-3.2-2.9-4.7-4-.9-.6-1.7-1.1-2.4-1.6-1.8-1-3.1-1.6-3.3-1.7-1.3-1.2-2.2-2.9-2.5-4.9-.5-4.3 2.2-6.2 6.1-6.8 1-.1 2-.1 2.9.2 9.6-1.8 11.9-8 13.3-10.6 4 5.7 13.9 9.8 38 6.1C97.1 14.3 84.5 5.4 71 7.4c-4.4.7-8.3 2.4-11.8 4.9l-.1.1c-1.1.8-2.1 1.6-3 2.6l-35 30C12.9 49.8 7.3 58.8 7.3 69.1c0 2.7.4 5.3 1.1 7.8.3 4.9-.1 11.7-2.9 18.6-.2.5-.5 1-.7 1.6-1.2 3.2-1.9 6.6-1.9 10.2 0 8.2 3.5 15.6 9.1 20.7h14.5c1-1.7 1.9-3.4 2.8-4.9zm20.5-90.8z"/>
            <path fill="#FFCC80"
                  d="M63.1 19.8c-1.4 2.6-5.7 8.8-15.3 10.6-.9-.3-1.9-.3-2.9-.2-3.9.6-6.7 4.5-6.1 8.8.3 2 1.2 3.7 2.5 4.9.2.1 1.5.6 3.3 1.7.7.4 1.6 1 2.4 1.6 1.5 1.1 3.1 2.4 4.7 4 6.4 6.6 11.8 18.1 2.3 35.9 0 0 7.3 15.5 23.2 16.9 6.1.5 13.3-5.6 22.1-8.8-.1-.7-.3-1.4-.5-2.1-.3-1.3-3.9-21.5-4.1-28.2-.2-7.4.7-11.9 1.9-14.8h8.8L103 39.7c-.2-2.4-.4-4.7-.7-6.7-.2-1.8-.6-3.5-1.1-5.2-24.2 3.7-34-2.3-38.1-8zm22.3 19.6c0-.9.7-1.6 1.6-1.6.9 0 1.6.7 1.6 1.6 0 .9-.7 1.6-1.6 1.6-.9 0-1.6-.7-1.6-1.6zm-35.6-7.1zm-4.9 68.1s0 .1-.1.1l.3-.4-.2.3z"/>
            <circle fill="#444" cx="86.9" cy="39.4" r="2"/>
            <path fill="#00BFA5"
                  d="M77.2 98.5C61.3 97.2 54.1 87 54.1 87c-2.2 4-5.1 8.4-8.9 13.1l-.3.4c-.5.7-1.1 1.3-1.7 2-.8 1-2 2.5-3.3 4.4-2.8 3.8-6.5 9.2-10.5 16.2-.9 1.6-1.8 3.2-2.8 4.9h80.8l-.3-1c-2.6-10.3-5.4-21.4-7.7-31.9-8.8 3.1-16.1 3.9-22.2 3.4z"/>
        </svg>
        <svg viewBox="0 0 128 128" height="100%" width="100%" pointer-events="none" display="block" id="svg-8">
            <path fill="#FFCC80" d="M41.6 123.8s.1-.2.2-.3c-.1.2-.1.2-.2.3z"/>
            <path fill="#B388FF" d="M0 0h128v128H0z"/>
            <path d="M64.1 34.5c-.1.1-.2.2-.3.2.1-.1.2-.2.3-.2zm.9-.7c-.1.1-.2.1-.2.2l.2-.2zm-1.9 1.3c-.1.1-.2.2-.4.2.2 0 .3-.1.4-.2zm-5.4 2.6l-.5.2c.2-.1.4-.2.5-.2zm2.8-1.1l-.2.1s.1-.1.2-.1zm-1.3.5l-.4.2c.1 0 .2-.1.4-.2zm8.8-6.3l-.2.3c.1-.1.2-.2.2-.3zm-1.9 2.1l-.3.2.3-.2zm1.4-1.4l-.3.3c.1-.2.2-.3.3-.3zm-.7.6l-.3.3c.2-.1.3-.2.3-.3zM62 35.8l-.3.2.3-.2zm5 47l-.3 1.6.3-1.6zM56.2 38.1l-.5.1c.1 0 .3 0 .5-.1zm10.4 46.5c-.1.5-.2 1.1-.4 1.6.2-.5.3-1 .4-1.6zm.6-3.6l-.2 1.6c.1-.5.1-1 .2-1.6zm-5.6-20.8c.1.1.2.3.4.4l-.4-.4zm7.5-30.9l-.6.9c.5-.7.9-1.3 1.2-1.8-.1.2-.3.5-.5.7 0 .1 0 .2-.1.2zM67.2 81c1-10.6-2.4-17.3-5.2-20.4 2.7 3.1 6.2 9.8 5.2 20.4zm-1 5.5c-.1.6-.3 1.1-.5 1.7.2-.6.4-1.2.5-1.7zm-5.6-27.4l.2.2c-.1 0-.2-.1-.2-.2zm-.3-.2s.1.1.2.1c-.1 0-.1 0-.2-.1zm-.2-.1zm-.1-.1zm1.7 38.2c-.1-.1-.2-.2-.4-.3l.1.1.3.2zm-.5-37.1l.3.3-.3-.3zm-.3-.4l.3.3c-.2-.1-.2-.2-.3-.3z"
                  fill="none"/>
            <path fill="#2A56C6" d="M98.8 94.8v.2-.2z"/>
            <path fill="#FFE0B2" d="M2.8 109.6L0 110.8V128h15.5L2.8 109.6z"/>
            <path fill="#DD2C00"
                  d="M91.9 128h5.6c-3.8-12-4.4-16-4.9-20.1-.1-.5-.5-2.4-.5-2.9-2.6.7-5.2 1.1-8 1.2-8.7-.2-16.5-3.8-22.3-9.3l-.2-.2-.1-.1c-2.9.2-7.6.2-10.8.6-4.6.6-9.6 1.3-15 2.4-4.7.9-11.2 2.7-33.3 9.3l.5.7L15.5 128h70.2"/>
            <path fill="#FFEB3B"
                  d="M66.2 86.5c0-.1 0-.1.1-.2.1-.6.3-1.1.4-1.6v-.2l.3-1.6v-.1l.2-1.6c1-10.6-2.4-17.3-5.2-20.4-.1-.1-.2-.3-.4-.4l-.1-.1-.3-.3-.1-.1-.3-.3-.1-.1-.2-.2-.1-.1c-.1-.1-.1-.1-.2-.1 0 0-.1 0-.1-.1l-.1-.1s-.1 0-.1-.1c-1.6-1.7-3.3-3-4.9-4.1-.9-.6-1.7-1.2-2.5-1.6-1.8-1.1-3.2-1.6-3.4-1.7-1.3-1.2-2.3-3-2.6-5-.6-4.4.3-6.4 4.3-7.1 1-.2 2-.1 3 .2l.1-.7c.6-.1 1.1-.2 1.6-.4l.5-.1 1.1-.3.5-.2 1-.3.4-.2c.4-.1.7-.3 1.1-.5l.2-.1 1.2-.6.3-.2c.3-.1.5-.3.8-.5.1-.1.3-.2.4-.2.2-.1.4-.3.7-.4.1-.1.2-.2.3-.2l.7-.5c.1-.1.2-.1.2-.2.3-.2.5-.4.8-.7.1-.1.2-.1.2-.2l.5-.5.3-.3.4-.4.3-.3.3-.4c.1-.1.2-.2.2-.3.2-.2.3-.4.4-.6l.6-.9.1-.2c.2-.3.3-.5.5-.7 4.2 5.9 14.5 10.4 39.3 6.7-4.2-14-17.3-23.5-31.3-21.4-5.3.8-10.1 3.2-14 6.6l-.2.2c-.5.4-1 .9-1.4 1.4-5.3 4.8-23.3 19.8-52.2 26.5-3.9 0-7.4 1.6-9.9 4.2v19.3c.3.3.6.6.9.8l-.3.9S30.9 96.4 64 90.3l1.6-1.8c0-.1 0-.1.1-.2.2-.7.4-1.3.5-1.8z"/>
            <path fill="#FFE0B2"
                  d="M84 106.2c2.8-.1 5.4-.5 8-1.2l.8-3.8c4.3-19.3 9.7-37.4 15-52.9h6.9l-4.8-8.2c-.2-1.9-.6-3.6-1.2-5.3-24.8 3.7-35-2.5-39.1-8.4-.3.5-.7 1.1-1.2 1.8l-.4.6-.2.3-.3.4-.3.3-.4.4-.3.3-.5.5s-.1 0-.2.1c-.3.2-.5.4-.8.7-.1.1-.2.1-.2.2-.2.2-.4.3-.7.5-.1.1-.2.2-.3.2-.2.1-.4.3-.7.4-.1.1-.2.2-.4.2l-.8.5-.3.2-1.2.6-.2.1-1.1.5-.4.2c-.3.1-.6.2-1 .3l-.5.2c-.3.1-.7.2-1.1.3l-.5.1-1.6.4c-.1.2-.1.5-.1.7-.9-.3-1.9-.4-3-.2-4.1.6-6.9 4.7-6.3 9.1.3 2 1.2 3.8 2.6 5 .3.1 1.6.7 3.4 1.7.8.4 1.6 1 2.5 1.6 1.5 1.1 3.2 2.5 4.9 4.1l.1.1.1.1.1.1s.1.1.2.1c0 0 .1 0 .1.1l.2.2.1.1.3.3.1.1.3.3.1.1s.2.3.4.4c2.7 3.1 7.2 9.8 6.2 20.4l-.2 1.6v.1l-.3 1.6v.2c-.1.5-.2 1.1-.4 1.6 0 .1 0 .1-.1.2-.1.6-.3 1.1-.5 1.7 0 .1 0 .1-.1.2-.8 2.6-1.8 5.3-3.3 8.3.1.1.2.2.4.3 5.7 5.6 13.5 9.1 22.2 9.3z"/>
            <path fill="#DD2C00" d="M85.6 128h5.1"/>
            <circle fill="#444" cx="95.8" cy="46.5" r="2"/>
        </svg>
        <svg id="robot" version="1.1" xmlns="http://www.w3.org/2000/svg" xmlns:xlink="http://www.w3.org/1999/xlink" x="0" y="0" width="320px" height="300px" viewBox="0 0 160 300" enable-background="new 0 0 320 300" xml:space="preserve">
    <rect x="59.722" y="72.779" fill="#333" width="40.557" height="27.564" />
    <g id="head" class="up">
        <g id="leftAntenna">
            <path fill="none" stroke="#ccc" stroke-width="1.5" stroke-miterlimit="10" d="M77.519,25.869
		C75.85,13.604,65.745,3.39,53.972,3.39">
                <animate attributeName="d" calcMode="spline" keySplines="0.42 0 0.58 1; 0.42 0 0.58 1; 0.42 0 0.58 1" begin="0s" dur="0.75s" repeatCount="indefinite" values="
                          M77.519,25.869C75.85,13.604,65.745,3.39,53.972,3.39
                          ;
                          M77.519,25.869C75.85,13.604,65.745,3.39,53.972,12
                          ;
                          M77.519,25.869C75.85,13.604,65.745,3.39,53.972,0
                          ;
                          M77.519,25.869C75.85,13.604,65.745,3.39,53.972,3.39
                          " />
            </path>
            <ellipse fill="#ccc" cx="55.021" cy="3.39" rx="3.344" ry="3.391">
                <animate dur="0.75s" attributeName="cy" calcMode="spline" keySplines="0.42 0 0.58 1; 0.42 0 0.58 1; 0.42 0 0.58 1" begin="0s" values="
                           3.39;
                           12;
                           0;
                           3.39
                           " repeatCount="indefinite" />
            </ellipse>
        </g>
        <g id="rightAntenna">
            <path fill="none" stroke="#ccc" stroke-width="1.5" stroke-miterlimit="10" d="M82.48,25.869
		C84.15,13.604,94.255,3.39,106.028,3.39">
                <animate attributeName="d" calcMode="spline" keySplines="0.42 0 0.58 1; 0.42 0 0.58 1; 0.42 0 0.58 1" begin="0s" dur="0.6s" repeatCount="indefinite" values="
                          M82.48,25.869C84.15,13.604,94.255,3.39,106.028,3.39
                          ;
                          M82.48,25.869C84.15,13.604,94.255,3.39,106.028,10.39
                          ;
                          M82.48,25.869C84.15,13.604,94.255,3.39,106.028,-5.39
                          ;
                          M82.48,25.869C84.15,13.604,94.255,3.39,106.028,3.39
                          " />
            </path>
            <ellipse fill="#ccc" cx="104.979" cy="3.39" rx="3.344" ry="3.391">
                <animate dur="0.6s" attributeName="cy" calcMode="spline" keySplines="0.42 0 0.58 1; 0.42 0 0.58 1; 0.42 0 0.58 1" begin="0s" values="
                           3.39;
                           10.39;
                           -5.39;
                           3.39
                           " repeatCount="indefinite" />
            </ellipse>
        </g>
        <path fill="#333" d="M96.079,32.57v-8.546c-10.72-3.765-21.437-3.98-32.156,0v8.546H96.079z" />
        <path fill="#f54f59" d="M112.809,28.372H80H47.19c-5.814,18.663-5.499,37.322,0,55.983H80h32.811
		C118.309,65.694,118.625,47.035,112.809,28.372z" />
        <g>
            <g id="eyeLeft">
                <path fill="#FFFFFF" d="M72.116,47.955c0,5.443-4.045,9.853-9.033,9.853h-1.971c-4.988,0-9.032-4.41-9.032-9.853
				s4.044-9.856,9.032-9.856h1.971C68.071,38.099,72.116,42.512,72.116,47.955z">
                    <animate attributeName="d" calcMode="spline" keySplines="0.42 0 0.58 1; 0.42 0 0.58 1" begin="5s" dur="0.8s" repeatCount="indefinite" values="
                          M72.116,47.955c0,5.443-4.045,9.853-9.033,9.853h-1.971c-4.988,0-9.032-4.41-9.032-9.853s4.044-9.856,9.032-9.856h1.971C68.071,38.099,72.116,42.512,72.116,47.955z
                          ;
                          M72.116,47.955c0,5.443-0.045,9.853-9.033,9.853h-1.971c-4.988,0-9.032-4.41-9.032-9.853s4.044-4.856,9.032-4.856h1.971C68.071,45.099,72.116,42.512,72.116,47.955z
                          ;
                          M72.116,47.955c0,5.443-4.045,9.853-9.033,9.853h-1.971c-4.988,0-9.032-4.41-9.032-9.853s4.044-9.856,9.032-9.856h1.971C68.071,38.099,72.116,42.512,72.116,47.955z
                          " />
                </path>
                <path d="M66.614,47.955c0,2.176-1.618,3.942-3.613,3.942h-1.807c-1.994,0-3.612-1.766-3.612-3.942
				c0-2.178,1.618-3.943,3.612-3.943H63C64.996,44.012,66.614,45.777,66.614,47.955z" />
            </g>
            <g>
                <path fill="#FFFFFF" d="M107.92,47.955c0,5.443-4.045,9.853-9.031,9.853h-1.973c-4.986,0-9.031-4.41-9.031-9.853
				s4.045-9.856,9.031-9.856h1.973C103.875,38.099,107.92,42.512,107.92,47.955z">
                    <animate attributeName="d" calcMode="spline" keySplines="0.42 0 0.58 1; 0.42 0 0.58 1" begin="5s" dur="0.8s" repeatCount="indefinite" values="
                          M107.92,47.955c0,5.443-4.045,9.853-9.031,9.853h-1.973c-4.986,0-9.031-4.41-9.031-9.853s4.045-9.856,9.031-9.856h1.973C103.875,38.099,107.92,42.512,107.92,47.955z
                          ;
                          M107.92,47.955c0,5.443-4.045,9.853-9.031,9.853h-1.973c-4.986,0-9.031-4.41-9.031-9.853s4.045-4.856,9.031-4.856h1.973C103.875,45.099,107.92,42.512,107.92,47.955z
                          ;
                          M107.92,47.955c0,5.443-4.045,9.853-9.031,9.853h-1.973c-4.986,0-9.031-4.41-9.031-9.853s4.045-9.856,9.031-9.856h1.973C103.875,38.099,107.92,42.512,107.92,47.955z
                          " />
                </path>
                <path d="M102.417,47.955c0,2.176-1.616,3.942-3.612,3.942h-1.807c-1.994,0-3.611-1.766-3.611-3.942
				c0-2.178,1.617-3.943,3.611-3.943h1.807C100.801,44.012,102.417,45.777,102.417,47.955z" />
            </g>
        </g>
        <path fill="#FFFFFF" d="M103.383,69.778c0,1.381-0.836,2.499-1.871,2.499c-10.756,0-32.269,0-43.025,0
		c-1.033,0-1.871-1.118-1.871-2.499c0-1.378,0.838-2.496,1.871-2.496c10.756,0,32.269,0,43.025,0
		C102.547,67.282,103.383,68.4,103.383,69.778z">
            <animate attributeName="d" calcMode="spline" keySplines="0.42 0 0.58 1; 0.42 0 0.58 1; 0.42 0 0.58 1" begin="0s" dur="1s" repeatCount="indefinite" values="
                          M103.383,69.778c0,1.381-0.836,2.499-1.871,2.499c-10.756,0-32.269,0-43.025,0
		c-1.033,0-1.871-1.118-1.871-2.499c0-1.378,0.838-2.496,1.871-2.496c10.756,0,32.269,0,43.025,0
		C102.547,67.282,103.383,68.4,103.383,69.778z
                          ;
                          M103.383,69.778c0,1.381-0.862,2.268-1.871,2.499c-11.669,2.677-29.396,3.207-43.025,0
		c-1.005-0.236-1.871-1.118-1.871-2.499c0-1.378,0.868-2.249,1.871-2.496c11.349-2.795,31.753-2.53,43.025,0
		C102.521,67.508,103.383,68.4,103.383,69.778z
                          ;
                          M103.383,69.778c0,1.381-0.86,2.724-1.871,2.499c-11.271-2.506-29.956-2.201-43.025,0
		c-1.019,0.171-1.871-1.118-1.871-2.499c0-1.378,0.89-2.819,1.871-2.496c15.191,4.995,30.429,3.433,43.025,0
		C102.511,67.01,103.383,68.4,103.383,69.778z
                          ;
                          M103.383,69.778c0,1.381-0.836,2.499-1.871,2.499c-10.756,0-32.269,0-43.025,0
		c-1.033,0-1.871-1.118-1.871-2.499c0-1.378,0.838-2.496,1.871-2.496c10.756,0,32.269,0,43.025,0
		C102.547,67.282,103.383,68.4,103.383,69.778z
                          " />
        </path>
    </g>
    <g id="upperTorso">
        <g id="leftArm">
            <g class="forearm">
                <path fill="#333" d="M9.068,131.177c-4.78,12.558-5.183,25.372-2.497,40.71c0,0,0.68,4.312,6.107,3.39
		c4.571-0.776,4.348-5.001,4.348-5.001c-2.351-13.388-2.234-24.244,1.89-35.134c0,0,1.75-4.725-2.833-6.6
		C11.02,126.471,9.068,131.177,9.068,131.177z" />
                <path fill="#f54f59" d="M9.604,166.5c-6.984,1.975-11.067,9.316-9.117,16.398c1.008,3.662,3.439,6.522,6.51,8.172
		c-0.167-0.363-0.315-0.742-0.426-1.141c-1.235-4.484,1.703-9.234,6.562-10.609c4.861-1.377,9.804,1.145,11.037,5.631
		c0.111,0.396,0.18,0.798,0.221,1.197c1.785-3.021,2.399-6.748,1.393-10.407C23.833,168.661,16.589,164.523,9.604,166.5z" />
            </g>
            <path fill="#333" d="M18.917,135.142c1.731-4.573,4.169-9.151,7.428-13.925c4.23-6.199,7.573-9.281,13.553-13.761
		c0,0,3.335-2.905,0.961-6.63c-2.797-4.389-7.415-1.908-7.415-1.908c-4.981,3.145-10.421,8.413-15.576,15.872
		c-3.827,5.537-6.726,10.938-8.8,16.387c0,0-1.877,4.187,2.599,6.24C16.75,139.75,18.917,135.142,18.917,135.142z" />
            <g>
                <ellipse stroke="#f54f59" cx="13.581" cy="132.93" rx="8.505" ry="8.623" />
                <g>
                    <path fill="#f54f59" d="M9.299,135.199c1.237,2.396,4.154,3.322,6.52,2.07c2.364-1.252,3.278-4.211,2.042-6.605
				c-1.236-2.398-4.152-3.324-6.52-2.072C8.978,129.844,8.065,132.803,9.299,135.199z" />
                </g>
            </g>
        </g>
        <g id="rightArm">
            <g class="forearm">
                <path fill="#333" d="M143.916,128.542c-4.583,1.875-2.833,6.6-2.833,6.6c4.124,10.89,4.241,21.746,1.89,35.134
		c0,0-0.223,4.225,4.348,5.001c5.428,0.922,6.107-3.39,6.107-3.39c2.688-15.338,2.283-28.152-2.496-40.71
		C150.932,131.177,148.98,126.471,143.916,128.542z" />
                <path fill="#f54f59" d="M134.216,175.741c-1.006,3.659-0.392,7.386,1.394,10.407c0.041-0.399,0.109-0.801,0.221-1.197
		c1.232-4.486,6.176-7.008,11.037-5.631c4.859,1.375,7.797,6.125,6.562,10.609c-0.111,0.398-0.26,0.777-0.427,1.141
		c3.071-1.649,5.502-4.51,6.511-8.172c1.949-7.082-2.134-14.424-9.117-16.398C143.411,164.523,136.167,168.661,134.216,175.741z" />
            </g>
            <path fill="#333" d="M148.333,137.417c4.476-2.054,2.599-6.24,2.599-6.24c-2.074-5.449-4.973-10.85-8.8-16.387
		c-5.155-7.459-10.595-12.727-15.576-15.872c0,0-4.618-2.48-7.415,1.908c-2.374,3.725,0.961,6.63,0.961,6.63
		c5.98,4.479,9.323,7.562,13.553,13.761c3.26,4.773,5.697,9.352,7.429,13.925C141.083,135.142,143.25,139.75,148.333,137.417z" />
            <g>
                <ellipse stroke="#f54f59" cx="146.419" cy="132.93" rx="8.505" ry="8.623" />
                <g>
                    <path fill="#f54f59" d="M148.659,128.592c-2.368-1.252-5.284-0.326-6.521,2.072c-1.236,2.395-0.322,5.354,2.043,6.605
				s5.282,0.326,6.52-2.07C151.936,132.803,151.021,129.844,148.659,128.592z" />
                </g>
            </g>
        </g>
        <path d="M42.356,94.049l-8.341-1.248c-5.238,10.201-7.014,20.918-4.697,32.248l8.34,1.248L42.356,94.049z" />
        <path d="M122.342,126.297l8.34-1.248c2.317-11.33,0.541-22.047-4.697-32.248l-8.34,1.248L122.342,126.297z" />
        <path fill="#f54f59" d="M125.283,131.334c0.048-13.081-1.633-26.163-5.186-39.244H80H39.903
		c-3.552,13.081-5.232,26.162-5.184,39.242L125.283,131.334z" />
    </g>
    <g id="lowerTrunk">
        <g id="leftFoot">
            <path fill="#333" d="M61.27,164.817c0-3.526-2.858-6.386-6.385-6.386c-3.527,0-6.386,2.859-6.386,6.386v0.001l0,0l0,36.132
			c0,3.526,2.859,6.386,6.386,6.386c3.526,0,6.385-2.859,6.385-6.386L61.27,164.817L61.27,164.817L61.27,164.817z" />
            <g class="lowerLeg">
                <path fill="#333" d="M61.27,200.63c0-3.526-2.858-6.386-6.385-6.386c-3.527,0-6.386,2.859-6.386,6.386v0.001l0,0l0,36.132
			c0,3.526,2.859,6.386,6.386,6.386c3.526,0,6.385-2.859,6.385-6.386L61.27,200.63L61.27,200.63L61.27,200.63z" />
                <path fill="#f54f59" d="M54.885,234.096c-9.526,0-17.244,7.119-17.244,15.903H72.13C72.13,241.215,64.41,234.096,54.885,234.096z" />
            </g>
            <g>
                <ellipse stroke="#f54f59" cx="54.885" cy="200.79" rx="9.294" ry="9.423" />
                <g>
                    <path fill="#f54f59" d="M60.607,203.823c-1.653,3.202-5.553,4.44-8.715,2.768c-3.163-1.677-4.383-5.628-2.73-8.832
					c1.651-3.204,5.556-4.442,8.715-2.771C61.036,196.664,62.258,200.62,60.607,203.823z" />
                </g>
            </g>
        </g>
        <g id="rightFoot">
            <path fill="#333" d="M98.73,164.817c0-3.526,2.858-6.386,6.385-6.386c3.527,0,6.386,2.859,6.386,6.386v0.001l0,0l0.001,36.132
			c0,3.526-2.859,6.386-6.387,6.386c-3.525,0-6.385-2.859-6.385-6.386V164.817L98.73,164.817L98.73,164.817z" />
            <g class="lowerLeg">
                <path fill="#333" d="M98.73,200.63c0-3.526,2.858-6.386,6.385-6.386c3.527,0,6.386,2.859,6.386,6.386v0.001l0,0l0.001,36.132
			c0,3.526-2.859,6.386-6.387,6.386c-3.525,0-6.385-2.859-6.385-6.386V200.63L98.73,200.63L98.73,200.63z" />
                <path fill="#f54f59" d="M87.87,249.999h34.489c0-8.784-7.719-15.903-17.244-15.903S87.87,241.215,87.87,249.999z" />
            </g>
            <g>
                <ellipse stroke="#f54f59" cx="105.115" cy="200.79" rx="9.294" ry="9.423" />
                <g>
                    <path fill="#f54f59" d="M102.123,194.988c3.159-1.672,7.064-0.434,8.715,2.771c1.653,3.204,0.434,7.155-2.73,8.832
					c-3.162,1.673-7.062,0.435-8.715-2.768C97.742,200.62,98.964,196.664,102.123,194.988z" />
                </g>
            </g>
        </g>
        <path fill="#f7727a" d="M34.719,131.334c0.048,13.082,1.824,26.164,5.184,39.246H80h40.098c3.361-13.08,5.138-26.162,5.186-39.244L34.719,131.334z" />
    </g>
</svg>
        <svg viewBox="0 0 128 128" height="100%" width="100%" pointer-events="none" display="block" id="svg-9">
            <path fill="#FFCC80" d="M41.6 123.8s0 .1-.1.1l.3-.4c-.1.2-.1.2-.2.3z"/>
            <path fill="#FFFF8D" d="M0 0h128v128H0z"/>
            <path fill="#C2C2C2"
                  d="M83.2 26.6c.1-.9.2-1.8.2-2.7C83.4 13.5 75 5 64.6 5s-18.8 8.4-18.8 18.8c0 1.4.2 2.7.4 4 5.4-4 12.2-6.4 19.4-6.4 6.5.1 12.5 2 17.6 5.2z"/>
            <path fill="#848484"
                  d="M41.4 58.4c9.6-1.9 10.3-10.7 11.7-13.2 4.2 5.4 12.4 16.6 36.8 13.5 1.5-2.5 4.4-6 7.4-5.6.3 0 .6.1 1 .2C98 42 92 32.1 83.1 26.5 78 23.3 72 21.4 65.6 21.4c-7.3 0-14 2.4-19.4 6.4-7.9 5.9-13.1 15.2-13.3 25.7.4-.1.9 1.7 1.4 1.7 2.8-.4 5.6 1 7.1 3.2z"/>
            <path fill="#FF5722"
                  d="M109.6 121.5c-1.2-2-2.2-3.6-2.9-4.8l-1.2-1.8-.2-.3c-.5-.8-1.1-1.6-1.8-2.3-3.1-3.3-6.9-5.1-10.8-5.3 0 0 .1 0 .1.1l-.2-.1c-3.4 3.7-7.8 6.6-12.7 8.5V128h33.4c-1.4-2.5-2.6-4.7-3.7-6.5zM42 106l-.2.5c-2.9.8-5.6 2.5-7.8 5.1l-.2.2s-.5.6-1.4 1.6c-.9 1-2 2.4-3.5 4.2-2.1 2.6-4.7 6.1-7.5 10.4h28v-15.7c-2.8-1.7-5.3-3.8-7.4-6.3z"/>
            <path fill="#E0F7FA" d="M67.7 117.7c-6.8-.2-13.1-2.1-18.3-5.4V128h30.5v-12.6c-3.8 1.4-7.9 2.2-12.2 2.3z"/>
            <path fill="#FFE0B2"
                  d="M42 106c2.1 2.4 4.6 4.5 7.4 6.3 5.2 3.3 11.5 5.3 18.3 5.4 4.3-.1 8.4-.9 12.1-2.3 5-1.9 9.3-4.8 12.7-8.5l.2.1s-.1 0-.1-.1c-15.7-12.3-12-21.7-7.8-26.6 1.3-1.1 2.6-2.3 4.1-3.6l12.2-10.3c1.4-1.2 2.4-2.8 2.7-4.8.5-3.8-1.9-7.3-5.4-8.2-.3-.1-.6-.2-1-.2-3.1-.4-5.9 1.1-7.4 3.6-24.4 3.1-32.7-8.1-36.8-13.5-1.5 2.4-2.1 11.3-11.7 13.2-1.6-2.3-4.3-3.6-7.2-3.2l-1.4.3c-3.4 1.1-5.5 4.5-5 8.1.3 1.9 1.3 3.6 2.6 4.7l10.2 8.7c5.8 6 14.1 18.3 1.4 30.7-.1.1-.1.2-.1.2zm37.6-45.3c.8 0 1.5.7 1.5 1.5s-.7 1.5-1.5 1.5-1.5-.7-1.5-1.5c-.1-.9.6-1.5 1.5-1.5zm-24 0c.8 0 1.5.7 1.5 1.5s-.7 1.5-1.5 1.5-1.5-.7-1.5-1.5c-.1-.9.6-1.5 1.5-1.5z"/>
            <circle fill="#444" cx="79.6" cy="62.2" r="2"/>
            <circle fill="#444" cx="55.6" cy="62.2" r="2"/>
        </svg>
        <svg id="svg-20" width="400" height="400" viewBox="100 0 400 600" xmlns="http://www.w3.org/2000/svg"
             xmlns:xlink="http://www.w3.org/1999/xlink">
            <defs id="DEF">
                <linearGradient id="rhue">
                    <stop offset="0" id="ro0" stop-color="red"/>
                    <stop offset=".25" id="ro1" stop-color="blue"/>
                    <stop offset=".75" id="ro2" stop-color="yellow"/>
                    <stop offset="1" id="ro3" stop-color="green"/>
                </linearGradient>
            </defs>
            <ellipse cx="290" cy="250" rx="80" ry="80">
                <animate attributeName="fill" dur="5s"
                         values="hsla(304,100%, 78%, 1); hsla(4,89%,75%, 1); hsla(64,100%,78%,1); hsla(124,89%,75%,1); hsla(184,100%,78%, 1); hsla(244,89%,75%,1)"
                         repeatCount="indefinite"/>
            </ellipse>
            <g id="penta">
                <g id="R1" transform="translate(200 250)">
                    <ellipse cx="0" cy="0" rx="100" ry="30" opacity=".4" fill="url(#rhue)">
                        <animateTransform attributeName="transform" type="rotate" dur="7s" from="0" to="360"
                                          repeatCount="indefinite"/>
                        <animate attributeName="cx" dur="8s" values="-20; 120; -20" repeatCount="indefinite"/>
                        <animate attributeName="ry" dur="3s" values="10; 60; 10" repeatCount="indefinite"/>
                    </ellipse>
                </g>
                <use xlink:href="#R1" transform="rotate(30 300 250)"/>
                <use xlink:href="#R1" transform="rotate(60 300 250)"/>
                <use xlink:href="#R1" transform="rotate(90 300 250)"/>
                <use xlink:href="#R1" transform="rotate(120 300 250)"/>
            </g>
            <use xlink:href="#penta" transform="rotate(72 290 250)"/>
            <use xlink:href="#penta" transform="rotate(144 290 250)"/>
            <use xlink:href="#penta" transform="rotate(216 290 250)"/>
            <use xlink:href="#penta" transform="rotate(288 290 250)"/>
        </svg>
    </defs>
</svg>
